<svg xmlns="http://www.w3.org/2000/svg" xml:space="preserve" viewBox="0 0 48 48"><path d="M6.4 41.6c-.5-1.5 1.3-2.3.6-3.3l-5.4-5.8c-.6-1 .6-2 1.3-1.7 2.4.8 4.7 2.2 7 3.3l1-1.4c3.9-4.5 5.3-5.8 9-9.6v-.5l.4-.5-19-18.9c-1-1 .8-2.7 2-2L14.6 9l.4-.4h.3l2-2.1.6-.6h.4l.4-.5-1.9-2h.2l2 1.8h1v1l1.8 1.9-.1.2L20 6.6l-.5.6v.3l-2.7 2.7v.4l4.7 3.3 2.8-3 1-.2.3-.3-2-2 .3-.2 2 2h.9l-.1.9 1.8 1.8-.2.2-1.8-1.8-.3.3v.7L23.5 15v.3l2.3 1.4.6-.5h.3c4.4-4.2 10.8-11 16-10.9zm0 0c1.5.5 2.3-1.3 3.3-.6l5.8 5.4c1 .6 2-.6 1.7-1.3-.8-2.4-2.2-4.7-3.3-7l1.4-1c4.5-3.9 5.8-5.3 9.6-9h.5l.5-.4 18.9 19c1 1 2.7-.8 2-2L39 33.4l.4-.4v-.3l2.1-2 .6-.6v-.4l.5-.4 2 1.9V31l-1.8-2v-1h-1l-1.9-1.8-.2.1 1.8 1.8-.6.5h-.3l-2.7 2.7h-.4l-3.3-4.7 3-2.8.2-1 .3-.3 2 2 .2-.3-2-2v-.9l-.9.1-1.8-1.8-.2.2 1.8 1.8-.3.3h-.7L33 24.5h-.3l-1.4-2.3.5-.6v-.3c4.2-4.4 11-10.8 10.9-16z"/></svg>
