<svg xmlns="http://www.w3.org/2000/svg" xml:space="preserve" viewBox="0 0 79.4 107.7"><path fill="#f2c2ab" d="m15.8 107.2-.5-2.7-.4-2.4s-3.3.6-7.1 1.6C.4 105.4 0 105.5 0 105c0-.9-.4-.7 10-3.2 7.8-2 7.2-1.7 9.6-3.6 1.3-1 2-1.3 3.5-1.1 1.3.1 1.2.2.8-2.3-.3-1.7-.3-1.7-2.2-3.7a25.2 25.2 0 0 1-7.5-14.5 14 14 0 0 0-.8-3.3 9 9 0 0 1-.5-2.6c-.1-1.4-.3-2.6-.8-4.2-1.2-4-1-6.8.5-7.8 1-.6.8-1.4-2.3-12.2-2.1-7.2-2.1-8 .2-8.8.7-.2.9-.4.8-.7-.2-2.5-.2-3.8 0-4.9.3-.8.3-1.1.1-1.2 0-.1-.1-.4 0-.8l-.1-.8C10.9 29 12 25 13 23c.5-1 .5-1 0-.8-1 .3-1 0-.4-2A25 25 0 0 1 21.9 8c1.7-1.2 1.8-1.2.5-1.1-1.5 0-1.3-.4.6-1.6C30 .8 37-1 41.7.5c1.2.4 1.3.4 1.3 0s.8-.3 2.6.2A21 21 0 0 1 54 5.4l1.2.9c-.7-1.7-.2-1.7 2 0C61 9.6 64 13.2 65 16c.5 1.3.5 1.3 1.6 1.6 2.4.5 4.9 2.7 4.6 4.2-.1.3 0 .8.6 1.8.8 1.4.8 1.4.7 3.5 0 2 .6 10 .9 11.8.1.9.2 1 2 1.7 1.6.7 1.6 1-1.7 10.2-1.1 3.2-1.2 5-.2 5.2 1.9.4 2.3 1.7 2.2 6.1-.3 7.8-1.1 12-2.7 13-.7.4-.8.6-1 1.2a25 25 0 0 1-6 13.9c-1.5 1.6-1.4 1.4-2.4 5.6a253 253 0 0 1-.9 3.7c0 .2.2.4.9.7l3.1 2c2.5 1.9 1.6 1.5 9.7 4 3.6 1.2 3.8 1.4 1.2 1.3-1.6-.1-2.5-.3-4.2-.8-2.3-.7-2.5-.7-2.5 0 0 .5-.4.9-1 .8-.3 0-.3-.2-.3-1 0-.9 0-.9-.9-1.3l-2.3-1.5-1.4-1a7 7 0 0 0-.2 2.3c0 2.4 0 2.4-21.4 2.5H21.7c-1-.3-2.3-4.8-2-6.6.2-1.2.2-1.3-.8-.5-.4.4-1.1.8-1.6 1-.9.3-1 1.8-.4 5 .2 1.1-.6 1.7-1.1.8zM57.7 58zm12-3.8a11 11 0 0 0 1.2-3.4c0-.2-.3.4-.6 1.3-.6 1.7-1 2.5-1.9 3.7-.4.6-.4.6.1 0 .3-.2.9-1 1.2-1.6zm-54 .5-.8-.6c-.1 0 1.1 1.3 1.3 1.3l-.5-.7zm-2-3A8 8 0 0 1 13 49c-.4-2.1-.5-2.5-.3-1 .1 2 1 5 1.2 4.7l-.3-1zM71 50v.3-.3zm3-4c.2-.9.3-1.2.1-1.5-.4-.8-.6-.4-.8 1.9-.1 1.5 0 1.4.6-.3zm-61.1-3.2a8 8 0 0 1 1.1-3l-.3.2a5 5 0 0 0-1.1 3.3c0 .8.3.4.3-.5zm58 0a6.4 6.4 0 0 0-2.5-2.4c-1.2-.6-1-.4.4.5 1 .7 1.5 1 1.9 1.8.5 1 .8 1 .2 0zm-20.6-4H50l.1.1h.1zm.5-.2h-.2c-.1.1 0 .2 0 .2.2 0 .3-.1.2-.2zm3-.4h-.6l-1.7.2c-.4.2.5.1 2.2-.2z"/><path fill="#d9a794" d="M15.9 107.3c-.2-.2-.7-3.5-.7-4.4 0-1.1.1-1.1-7.7.7-7.3 1.7-7.5 1.8-7.5 1.2 0-.5.8-.7 9.2-2.7l8.3-2.1 1.5-1.2c2-1.6 2.3-1.7 3.9-1.6 1.6.1 1.5.2 1.1-2.1-.3-2-.3-2-2.2-4a25 25 0 0 1-7.6-15 11 11 0 0 0-.6-2.7c-.3-.5-.4-1.2-.5-2.5-.1-1.2-.4-2.7-.9-4.4-1.2-4.5-1.1-6 .3-7.5 1.2-1.2 1.1-1.6-2-12.2-2.2-7.4-2.2-8.2 0-9 .9-.2.9-.2.8-2.6 0-1.8 0-2.7.2-3.3.3-.8.3-1 0-1.2V30a1 1 0 0 0 0-.9c-.4-.5.6-3.7 1.6-5.8.8-1.6.8-1.7 0-1.3-.8.4-.9 0-.2-2 1.9-5.2 5-9.3 9.5-12.2 1.6-1 1.6-1 .5-1-1.5-.1-1.5-.3 0-1.2 7.5-5 13.8-6.5 19-5 1.4.5 1.4.5 1.3.2-.6-2 7.6 1.8 11.1 5 1 1 1.3 1 1.1.7-.5-1.7-.3-1.8 1.4-.3 4.4 3.6 7.2 7.1 8.2 10.2.4 1 .4 1 1 1.2 2.7.4 5.1 2.3 4.8 3.8 0 .3.3 1 .9 2.2.9 1.8.9 1.8.8 3.2-.1 1.4 0 2.5.5 9.5.4 3.9.2 3.5 2.4 4.4 1.5.6 1.4 1.1-1.9 10.3-1 3-1.1 5.1-.2 5.1 2.4 0 2.9 3.6 1.8 12.4-.6 4.5-1 5.6-2.2 6.5-.8.6-.8.6-1 2-.8 5-2.8 9.5-6 13.2-1.4 1.5-1.4 1.5-2.2 4.9-1.2 4.8-1.2 4.8-.6 5 1.1.5 1.7.8 3.4 2.2 2.2 1.6 2.4 1.7 7.6 3.3 5.8 1.8 6 2 3.7 1.8a13 13 0 0 1-4-.7c-3-.8-2.7-.8-3 0-.3 1.2-1 1-1.1-.3 0-1 0-1-.8-1.3a17 17 0 0 1-2.4-1.5c-2.2-1.6-2.1-1.6-2 .4.3 3.1.3 3.4-.3 3.4-.5 0-.5 0-.7-1.1-.3-1.4-.6-2-1.3-2.7-.5-.5-.5-.5-1.6 2.4-.4 1.3-.8 1.7-1.2 1.4 0-.1.2-1.6.7-3.6 1.2-4.3 2.6-10 2.5-10.2l-1.4 1.8c-2 2.9-3 4.1-7.2 8.3-3.8 3.8-3.8 3.8-15.3 3.8-12.8 0-12.3 0-12-1.2.4-2.5-.7-12.6-1.4-12l.2 1.9a60.9 60.9 0 0 1 .4 11c0 .3-.5.3-2.2.3-2.7 0-4.3-2.6-4-6.6.2-1.4.2-1.5-.7-.7-.3.3-1 .8-1.6 1-1 .4-1.2 2.1-.6 5.6 0 .7-.6 1-1 .5zm8.6-6.8c0-.3-3.2.7-3.3 1 0 .2.7 0 1.6-.3 1-.3 1.7-.6 1.7-.7zm10.9-9.7h1.1c.2.2.5.1.9-.1.6-.4 2.4-.5 2.4 0h.3c.2-.1.7-.2 1-.1.4 0 .6 0 1-.5.3-.5.4-.5 1.2-.4.6.1.8 0 1-.2.4-.2.4-.2 1 .3.4.4.5.5.7.2.3-.2.4-.2.7.1.3.3.4.4.9.2l.9.1c.1.2.5.2.7.2h.7c.2.1.7.2 1.3 0 .6 0 1.3 0 2 .2s1 .2 1.2 0h.5c.3 0 .8-.2 1.5-.7.3-.3.4-.6.4-1.3 0-.8 0-1 .2-1 .3 0 .3-.2.3-.8v-1.2c.2-.2 0-.5 0-.7-.2-.2-.4-.8-.4-1.2-.2-1.1-.6-2.6-1-3.5-1-2-1-2-1.3-1.2-.2.4-.2.4-1 .3-.7 0-1 0-1.8.4a20.7 20.7 0 0 1-17.2.5c-1.5-.7-1.5-.7-2.3-.3-1 .5-1.2.4-1-.6.1-1.1.5-1.5 1.3-1.5.6 0 .7-.1 2.9-2.7 3.5-4.4 3.6-4.4 6.2-3.8 1.3.3 1.3.3 2.6-.2 2-.6 2.2-.5 5.9 3 2.7 2.7 3.5 3.3 3.5 2.8s-.8-1.7-1.4-2.2c-.4-.3-.7-.7-.7-.8 0-2-5.2-4.5-7.3-3.6-1 .3-1 .3-2.4 0-2.5-.4-4.8 1.2-9.4 6.4L31 78.6c-.8 1-.9 1.2-1 2.8l-.3 1.4c-.3.5-.3.7 0 1.1.1.4.2.6 0 1-.1.3-.1.5.1.8.2.3.3.8.3 1.2 0 1.4 0 1.5.4 1.7.3.1.4.3.4.6s.1.6.3.7l.3.5c0 .3 1.8.6 2.6.5l1.3-.1zm3.2-4.3c-.2-.9-1.1-2-2.5-2.7-1-.6-1.2-.8-1.1-1 0-.5 0-.5 3.4-.2 3.6.4 7 0 9.7-.9 1.6-.5 2-.3 1 .6-.6.6-1 1.2-1.3 2.9-.3 1.4-.3 1.5-.8 1.4a42 42 0 0 0-6.6.2c-1.5.4-1.7.4-1.8-.3zm24.9 2.2c5-3.9 6.7-7.5 7.5-16.4.3-3 .5-4.2.8-4 .3.4.6-2 .6-5 0-3.6 0-3.8-.4-3.2-.5.6-.7.2-.8-1.8-.3-4-.3-4-.8-3A7.8 7.8 0 0 1 65 59c-1.2.3-1.3.5-.2.6.4 0 .8.2 1 .3 1.5.8-10 .3-13.7-.7-1.5-.3-1.4-.3-.8 1 1.7 3.4 1 6.5-1.5 7-.7 0-.7 0 .5.7.7.3 1.6 1 2 1.3l1.3 1c.9.4 1.7 1 2 1.3 0 .2.5.6 1 .9.9.5 1 .9.7 1-.2.1-.2.3.3 1 1 1.3 1.5 2.5 1.2 2.7-.1.2 0 .4.1.6.3.5.3.8 0 .8-.2 0-.2 0 0 .5.1.3.2.6.1.7 0 .1 0 .4.2.6v.6c-.3.3-.3 1 .1 1.5.3.4.6 2.1.8 4.2.1.8.6 1.7 1 2 .3 0 .6.2.8.4.5.5.4.5 1.5-.3zm-37.6-1v-1.2c.1-.3.1-.7 0-.8-.1-.2-.2-1.2 0-2.4l.5-5.5.3-1.3c.2-.3.4-.8.4-1.1.2-.8 2.4-2.6 3.2-2.6.4 0 2-1.1 2-1.5 0-.6 1.3-1.8 2.6-2.2 1-.3 2-1.2 1.3-1.2-3.7 0-4.2-3.5-1.3-8.4 1.1-2 1.3-2.4.8-2.2l-2.1.7a23.1 23.1 0 0 1-9.8 1.4c-5.9 0-7.3-.3-3-.8 2.9-.3 3.1-.4.8-.6-1 0-2.3-.2-2.9-.3-1.3-.2-1.1-.6-1.3 3.3-.4 5.9-.2 9.4.5 11.1.6 1.5.6 1.8-.1 1.8-.8 0 .2 3.6 2 7.2 1.8 3.9 7.3 9.7 6.1 6.6zm19-8.8c1-.4.2-.6-1.7-.5-2.2.1-3 .2-2.8.5.1.2 3.9.2 4.5 0zM73 72.6c.4-.6.3-1-.1-1-.6 0-.6-.2.1-1.7.8-1.5.9-2.3.2-1-.3.6-.5.8-.8.8-.4 0-.5 2.5-.1 2.9.2.2.6.2.7 0zm-35.4-4.8h-.2l.1.1h.1zM40 67c.4-.1.4-.2.2-.4-.3-.3-.4-.3-.8.1-.6.6-.4.7.6.3zm-3.5-2c.2-1.5.5-1.9 2-1.7 1.3 0 1 0-1-.9-.4-.1-.8-.5-1-.9-.9-1.5-2 0-2 2.8 0 1.8 1.9 2.4 2 .7zm14-.2c.8-.6.8-1.6.1-3.1-.8-1.8-1.6-2.3-2.3-1.5-.6.6-.9.3-1.4-1.6a160.4 160.4 0 0 0-2-7.3c-1.7-6.2-4.5-6.7-5-1-.2 2.9-.5 4.3-1.2 6.2-1.3 3.9 2 6.7 5.7 4.8 1.2-.6 1.4-.5.8.7-.6 1-.6 1 .9.8 1.7-.3 3 .5 3 1.9 0 .8.6 1 1.4.1zm-37.2-4.1c0-.3-.1-.3-.3-.2v.5c.4.3.5.2.3-.3zM73.6 58c.4 0 .1-.3-.3-.4-.6-.2-1 .1-1 .8 0 .5 0 .5.6 0l.7-.4zm-7.7-.2a6 6 0 0 0 3.4-2.5c1.4-2 2.5-6 1.7-6-.3 0-.4-.3-.7-2l-.6-3.4c-.8-3 .1-3 1.3 0 .4.9.4 1 .4.4 0-2-1.7-3.7-4.8-4.7-1.8-.6-2.7-.8-2-.3.7.5 1.2 2 .7 2l-.7-.3c-.4-.3-.8-.4-1.7-.4a12 12 0 0 1-2.6-.5c-2.5-.8-3.8-.6-6.5.7-2 1-2.4 1.2-3.7 1.3-2.4.2-2.6.5-2.6 3.1 0 2.3.3 2.8 1.4 2l1.1-.5c.2 0 .6-.3 1-.6 1.9-2.2 5.7-2 10.2.2 2 1 2.9 1.4 3.6 1.5 2.2.2.7 1.5-1.8 1.6l-4.3.1c-2 .1-2.8 0-4.5-.3-2.2-.4-3-.3-2 .3 1.2.8 4.6 1.5 6.6 1.3 2-.2.9.6-1.3 1a8 8 0 0 1-7.2-2.3c-3.4-3.1-2.9 1.8.6 5.6l1.1 1.3-2-1c-.5-.4-.6-.1 0 .4 2.6 2.3 12 3.5 16 2zm-4.1-14c-1.7-.8-3-1-5.5-1-2.2 0-2.6-.1-1.8-.6 1.4-.7 6.1.1 7.9 1.6.8.6.5.6-.6 0zM29.4 56.2a8.8 8.8 0 0 0 3.4-2.8c.8-1 .5-1.2-.9-.6-1.3.6-2.7.8-3.3.6-.3 0-.2-.2.7-.5 2.6-1 3.8-2.7 1.5-2.1-2.1.5-6.8.5-8.9.1-3.2-.6-4.2 2.7-1.5 5 1.2 1 6.8 1.2 9 .3zM17.7 56l-.8-.6c-2.8-1.8-3.7-3.7-4-8.3-.3-3.6.3-6 1.7-7.6.6-.6.7-.8.5-.8-3.4 0-3.6 12-.1 15.9.8 1 2.7 2 2.7 1.4zm8.4-6.6-.1-.2c-.2-.2-.8 0-.6.2 0 .3.7.2.7 0zm5.4-.7c-.1-.4-.5-.4-.5-.1 0 .2.1.3.3.3l.2-.2zm27.6-.3V48c-.2-.1-.5 0-.5.3 0 .2.1.2.5 0zm-5.4-.3c0-.4-.2-.5-.6-.4-.3.2-.3.2 0 .4.4.3.6.3.6 0zm20.6-2.8c0-.5 0-.8-.3-1-.5-.6-.6-.2-.7 2 0 2 .7 1.2 1-1zM55.7 47l-.1-.1v.2-.1zM22 46.3c1.4-.9 2-1 5.6-1 3 0 3.5.1 4.4.4 1.6.6 1.8.4.9-1.4-1.5-2.9-4-4.3-7.7-4.3-2.3 0-2.6.1-3 1-.5.8-.9 1-1 .2 0-.5-.1-.6-1.4-.2l-1 .1-.9-.2c-1-.1-1-.4-.2-1.6 1.1-1.9 3.4-2.6 8-2.5h1.9c-2.7-.5-7.6 0-10.5 1-1.4.4-1.8.6-1.3.8.3.1.3.3.2 3.9 0 3.7 0 3.7.4 4 .7.3 2.6-1.1 3-2.2 0-.2.3-.4.6-.5l.7-.3-.1 1.5c-.4 2.1-.2 2.3 1.4 1.3zm22.4-3.5c-.8-1.3-5.8-1.3-5.8 0l.4-.2c1.2-.8 4.2-.5 5 .5.6.7.9.4.4-.3zm2.4-.5c.5-1.6 2.7-3.2 4.7-3.6a39.2 39.2 0 0 1 10.6-.3c-1.6-.6-8.4-.7-10.6-.2-3 .7-5.2 2.7-5.2 4.7 0 .4.3 0 .5-.6zm-11-2c-.3-.4-1.6-1.5-2-1.5l2.1 2-.1-.4zm9-1.9 1.3-2c.6-1.4.8-1.5 1.7-1.7l1.2-.3h.7c.2.3.7.3 2 .4 2.3 0 4.7.4 8.1 1.4 3.6 1 3.6 1 3.8.1.7-3.6-1.8-10.3-5.2-14-1.2-1.2-4.6-2.5-5.3-2-.1.2-.5.1-1.5-.2-.8-.3-1.5-.5-1.6-.4-.2 0-.7 0-1.1-.2-.8-.3-.9-.3-1 0-.3.3-.4.3-1.3 0-2-.5-4.6-.8-4.6-.3l-.2.2-3 .2c-3.3 0-8.8.4-8.7.7 0 .3 0 .4-.5.5-.4 0-.7.2-.8.4 0 .3-.5.4-1.8.6-4 .7-6.6 5-7 11.6-.1 2.4-.1 2.4 1 2.3l4.3-.3A11 11 0 0 0 29 35c.3-.1.6-.2 1.1-.1h1c.2-.2.4-.2.8-.1.4.2.5.1.7-.2.2-.3.2-.3.9 0 .4.1.9.2 1.1.1.6 0 1 .4 1.7 1.6l1 1.3 1.3 1c.6.6.7.6 2.4.7 3.6.2 3.2.3 4-.9zM29.4 37H29c-.2 0-.1.1 0 .1h.3z"/><path fill="#b08777" d="M16 107.2c-.2-.2-.4-1.5-.5-2.8a17 17 0 0 0-.4-2.5c-.1 0-3.4.6-7.3 1.6-7.6 1.8-7.8 1.8-7.8 1.4 0-.3.6-.7 1.7-1 .5 0 4.2-1 8.3-2 7.4-1.7 7.4-1.7 8.8-2.8 2-1.7 2.6-2 4.2-1.9 1.6.2 1.5.3 1-2.4-.2-1.7-.2-1.7-1.9-3.5-4.8-5-6.7-8.9-7.8-15.1a13 13 0 0 0-.7-2.9c-.3-.6-.4-1.3-.5-2.7a16 16 0 0 0-.6-3.5c-1.4-4.4-1.4-6.7.2-8.2 1-1 1-1.6-2.2-12.3-2.2-7.4-2.2-7.9 0-8.7 1.1-.4 1.1-.4 1-1.7-.3-1.8-.2-3 0-4.2.3-.9.3-1.2.1-1.4-.1-.2-.1-.4 0-.8.2-.5.2-.6 0-.8-.4-.3.8-4.3 1.8-6.2.6-1.2.6-1.4 0-1-1 .7-1.1 0-.3-2.2A25 25 0 0 1 23.3 7.3c1.2-.6 1.1-.8-.3-.7-1.6.2-1.5 0 .7-1.5C31.3.4 37-.9 42.5 1c1.1.4 1.4.3 1 0-.4-.6.2-.6 2-.1 3.1.8 6 2.5 8.6 4.9 1.5 1.4 1.8 1.5 1.3.4-.5-1.4-.2-1.3 2.3.9a23 23 0 0 1 7.3 9.4c.3 1 .4 1 1.4 1.2 2.1.3 4.6 2.3 4.2 3.5 0 .3.2 1 .8 2.1 1 1.7 1 1.7 1 4.2a53.4 53.4 0 0 0 .6 9c.3 3.7.1 3.4 1.6 4 2.3.9 2.3 1-.4 8.2-1.9 5.4-2.1 7.1-.9 7.5 2.2.6 2.6 2.3 2.1 8.4-.6 7.4-1.4 10.5-2.8 10.5-.4 0-.6.4-.9 2.2-.8 4.6-2.7 9-5.2 12-2.2 2.5-2 2.1-3 6.4-1.1 4.5-1.1 4.3 0 4.7l2.7 1.7c2.6 2 2.8 2 7.7 3.5a80 80 0 0 1 5.2 1.8h-1.3a15 15 0 0 1-4-.8c-3-.8-2.9-.8-3-.2-.2 1-.3 1.1-.6 1.1-.4 0-.4 0-.4-1.2 0-.8 0-.8-1-1.3l-2.4-1.5c-2.3-1.8-2.3-1.8-2 .3.4 2.4.3 3.7-.1 3.7-.5 0-.7-.5-.7-1.3a4 4 0 0 0-1.2-2.6c-.7-.8-.7-.8-1.3 1-1.8 4.6-2 4-.6-1.5l2.7-11.3c.2-.7.5-1.1 1.3-2 4-4.3 5.8-8.8 6.6-16.5.5-5 .7-5.3 1-1.4 0 2 .1 2.1.5 1.8.7-.6 1.2-2.5.6-2.5-.4 0-.4-.1.2-1.5.8-1.7.7-3 0-1.3-.7 1.2-1.1 1.4-1.2.4 0-.5 0-.8.3-1l.6-.8c0-.3.2-.4.4-.4.5.2-.1-2.7-.7-3.6-.4-.5-.4-1.7 0-1.7.3 0 .6.5 1 1.7.4 1 .4 1 .6-.2.2-2.3-.2-3.6-1-3.3-.8.3-.9.3-.9-.2s.4-1 1.2-1.2c.6-.3.2-.8-.6-.8-.7 0-.8 0-1 1.3-.4 2-.7 1.4-1-2.7 0-2-.1-2-.7-1-2.7 5.7-16.8 6.2-22 .9-2.1-2-4.2-6.7-4.2-9.3 0-1.4-.2-1.5-1.9-1.6-2.1-.1-2.7.1-2.9 1.3-.1.6-.3 1-.5 1s-.8.7-.8 1c0 .2.2.2.4-.1.8-1 .5 1.2-.6 3.4-.7 1.7-3.3 4-3 2.8.1-.2-.3 0-1.1.9-3.2 3-13 4-17.7 1.6l-1-.3-.3 3.4c-.5 6.3-.7 6.9-1.2 4.6-.2-1.2-.5-2-.7-2-.3 0 0 1.7.6 4l.7 2.4c0 .4.3.3.4-.1.2-.9.5.3.6 3a27 27 0 0 0 3 12.6c2 3.6 7.5 9.3 9 9.3.2 0 .3-.4 0-.6-.1 0-.2-.4-.1-1 0-.5 0-.7-.2-.8-.2 0-.2-.2-.2-.5.2-.5 0-1.7-.2-1.6-.2 0-.2-.2 0-.8 0-.6 0-1-.2-1.3v-1c.2-.4.2-.7.1-.8-.2-.1-.2-1.7 0-2 .3-.2.3-.4 0-.7-.1-.3-.1-.4.1-1 .2-.3.3-.7.1-1.1V79c.2-1.9.3-2.3.5-2.6.2-.2.3-.6.4-.9.2-.8 1-1.6 2.8-2.5 2.3-1 2.7-1.4 2.7-2 0-.6.8-1.2 2-1.5.2-.1.6-.3.8-.6.6-.5 1.2-.8 1.6-.8l.9-.3a5 5 0 0 1 1.2-.3l1-.4c.7-.6.8-.6 1.5-.3.8.3 1.2.3 1.2 0l-.4-.1c-.3 0-1-.3-1.5-.7-1-.6-1-.6-2 .3-1.5 1.5-3 1.9-4.6 1-2.4-1.2-2.1-3.8 1-8.4a41 41 0 0 0 1.8-3.2c1-1.7 1.5-.8.7 1l-.7 2.5c-.5 2-.6 2.1-1 1.4-.6-.9-1-.6-1.9 1.1-.7 1.7-.6 3.8.4 4.6.7.6 2.7.3 2.1-.4l-.2-1c0-1.8 1.3-2.1 3.4-.8 1.6 1 2.5 1 3.6 0 2-1.9 3.8-1.5 4.4 1 .3 1 1.6.8 2.6-.4 1.3-1.4-.9-6-2.5-5l-.7.2-.8-4c0-.4.6 0 1.2.8.3.5 1 1 1.3 1.3 3.6 2.8 3.5 9-.1 9-1 0-1 .2.8 1l1.9 1.3c.3.3 1 .9 1.6 1.2l1.6 1.1 1.2 1c.4.1.5.3.4.4-.2.2 0 .5.4 1.1 1 1.3 1.5 2.4 1.2 2.6-.2.1-.2.3 0 .6.2.4.2.5 0 .7-.3.1-.2.2 0 .7.2.3.3.6.2.8l.1.5v1c-.1.5-.1.7.3 1.2.4.6.8 2.5.8 3.9 0 1 .9 2.7 1.6 3 1.6.8 1.3 4.6-.4 6-.6.3-1 .8-1.3 1.5-.2.6-.6 1.1-.8 1.3-.2 0-.6.3-.8.5a3 3 0 0 1-1 .5c-.4 0-1 .4-1.4.7a4 4 0 0 1-1.2.7 5 5 0 0 0-1.5 1.1 5 5 0 0 1-1.3 1.1s-.8.4-1.5 1c-3.3 2.5-5.4 2.7-8.7.7-2.6-1.5-3.6-1.9-5-1.9-1 0-1 0-1.4-.4-.2-.3-.6-.5-1.2-.6-.6 0-.8-.2-1-.5 0-.3-.2-.5-.3-.5l-.8-.5c-.4-.3-.9-.5-1.1-.5-.3 0-.4-.1-.4-.3l-.4-.7-1.8-2c0-.3-2.6-2.4-2.8-2.4-.3 0-.3.1 0 2.2.4 2.3.8 7.8.6 8.5-.3 1.1-1-1.4-1-3.5 0-1-.2-1-2.2-.4-2.2.7-2.3 1.2-.6 5 .7 1.6.7 1.8 0 1.8-1 0-2.5-4.5-2.2-6.7.2-1.5.2-1.5-.8-.7l-1.8 1c-1.2.6-1.3 1.7-.5 5.8.1.7-.5.9-.9.3zm21.5-16.3c.4-.2.6-.2.8 0h.6c.4-.3.4-.3.6.2 0 .3 0 .3.5 0 .4-.3 1-.3 1 0s.4.1 1-.5c.6-.5.7-.5 1-.3.4.2.6.2 1 0 .5-.3.9-.2 1.6.4.2.2.3.2.5-.1.2-.4.3-.4.7 0 .3.3.5.4 1 .3l1 .1H50l1.9.2h2.7c1.6.2 2.8-.7 2.6-1.8 0-.3.1-.7.3-1 .1-.2.3-.7.3-1.2 0-.4 0-.8.2-1l-.2-.8c-.3-.6-.8-2.8-.8-3.8l-.5-1-.5-.8c0-.4-.7-1.6-1.2-2a3 3 0 0 1-.7-1.1L53 75c-.5-.4-.9-1-.9-1 0-1.8-5.8-4.9-7.5-4-.7.4-1 .4-2.2.2-2.5-.2-2.8-.2-4 .5a59.6 59.6 0 0 0-8 8.3c-.7.8-.8 1.1-1 2.7 0 .5 0 1.2-.2 1.5v.8c.1.2.2.6 0 1l.1.6c.3 0 .5 1.2.2 1.6-.2.4.1 1.5.6 2 .3.2.3.5.3.8-.1.3 0 .4.2.6.2 0 .4.3.4.4 0 .4 5.9.3 6.5-.2zm2-4.6-.3-.3c-.1 0-.5-.3-.8-.8-.5-.5-1-1-2-1.5-1.3-.7-1.6-1.2-.7-1.1.3 0 1.7 0 3 .2 3.1.3 6.2 0 8.5-.6 2.4-.7 2.5-.7.9.9-1 .9-1.2 1.2-1.5 2-.3 1.1-.3 1.1-.8 1-1.5-.3-4.1-.1-5.8.4-.3 0-.4 0-.5-.2zm-1.6-5c-.8-.1-2-.6-3-1-.8-.4-1.7-.7-2-.7-.9 0-.8-.2.3-1.4l2.2-2.3c1.5-1.7 2-1.6 1.1.1-.4.8-.4.8 0 .7 2.6-.7 4.4-1.3 5.2-1.7 1.1-.5 1.3-.5 2.8 0 1.4.6 3.3 1 4.2 1 1.2 0 1.1-.3-.4-2.7-.6-1-.1-.6 2 1.5a24 24 0 0 0 3 2.6c1 .8 1.3 1.5.3 1.5l-1.7.6c-1.4.7-1.7.7-1-.1 1.2-1.2-4.7-2.6-6.6-1.6-.7.3-.9.3-1.8.2-2.2-.5-6.7.5-6.7 1.5 0 .3 2 1.3 3.4 1.7 1.8.5.7.7-1.3.2zm3.8-8.8c-1.4-.8-1.2-1 .5-.4 1.4.4 1.5.5 1.1.7-.4.2-.7.2-1.6-.3zm-2.1-.7v-.1h.2l-.1.2-.1-.1zm7.2-5.6c-.2-1-1.2-1.2-2.1-.4-.7.6-.7.6.3.7 1.5.2 1.8.2 1.8-.3zm-33.3-5.4c-.1-.8-.2-.9-.6-.5-.2.2-.1.4.2.8.5.7.6.6.4-.3zM64 58.3c4-.6 6-2.7 7.2-7.5.3-1.5.5-3.4.2-2.6-.4 1-.6 1-.8 0l-.5-3c-.7-3.2-.7-3.4-.5-3.4.5 0 1.3 1.4 1.7 3.1.3 1.3.3 1.3.3.2.1-7.1-20.1-10.6-24.6-4.2-.8 1.1-1 4.9-.2 5.5 1.1.9 1.5 2.2.8 3-1 1.2 1 5.5 3 6.9 2.7 1.7 9 2.6 13.4 2zm-7.4-9c-1.2-.2-2.5-.5-2.5-.7 0-.9-.6-1.4-1-1.2-.6.3-.8.8-.4.9.3.1-1 .3-1.6.3-1.5-.2.2-2 2.3-2.6 2.4-.6 6 0 9.6 1.5 2 .8 1.6 1.5-.8 1.5l-2.7.1c-1 .2-1.6.2-3 .1zm2.8-1c.3-.3.1-.6-.4-.6-.3 0-.8.6-.8 1 0 .2 1-.1 1.2-.4zM55.8 47l-.3-.2-.2.2.3.2c.2 0 .2-.1.2-.2zm4.6-7.3a12 12 0 0 0-5.4-.2c-1.2.2-1.7.2-2 0l-.9-.2c-.8-.2.2-.5 2-.7a33 33 0 0 1 10 .6c.2.2-.6.6-1.1.6-.3-.1-.6 0-.7.1-.3.3-.1.4-1.9-.2zm-9.9-.4.5-.2c.3 0 .3 0 0 .2l-.5.2c-.2 0-.2 0 0-.2zM27.9 56.7c5.8-1 9.9-9 7.2-14.2-1.2-2.2-4-3.7-5.6-2.8-.3.2-.8.2-2.6 0l-3.2.1c-2.1.5-2.5.5-3.6 0-1.4-.7-1.7-1.1-.9-1.6 4.1-2.5 12.6-1.4 15.9 2 1 1.3 1.5 1.4 1 .3-2-4.2-15.8-5.4-21.2-1.8-4.4 2.9-3 15.3 1.8 17.2 2 .7 8.5 1.2 11.2.8zM14.5 53c-2.3-3.2-2.1-11.3.3-13.8 1.3-1.2 1.4 0 1 9-.3 5.3-.5 6-1.3 4.8zm9.3-2.7a15 15 0 0 0-2.7 0c-2.9.1-3-.4-.6-2.3 1.5-1.2 3.6-2.1 5-2.3 1.3-.2 1 .2-.5.5-1.4.2-1.7.3-2.7 1.2-1.4 1-1 1.4.6.6 5-2.2 9-2.3 11.2 0 .6.6.3 1-1.1 1.1-.7 0-2 .4-2.8.7-2 .5-4.9.8-6.4.5zm2.7-.7c0-.6-.8-1.1-1.2-.8-.5.4-.5.4 0 .7.4.3 1.2.4 1.2 0zm5-.7c.5-.3.5-.7 0-.8-.5-.2-.7 0-.7.6s0 .6.6.2zm42.4-2.4c.6-1.7.6-1.8.3-2.3-.6-1.1-.9-.4-1 2.4-.2 2.2 0 2.2.7-.1zm-35.5-2c.4-1.5.7-1.9 1.2-1.6.3.2.6.2 1.5 0 1.9-.3 2.9 0 3.6 1.2.2.3.2.3.2-.4 0-1.5-1.5-2.3-4-2.1-2.1.1-2.5.5-3 3-.3 2 0 2 .5-.1zm7-5c.4-.3.4-.5.4-1.2 0-1.7 1-3.4 1.9-3.4a3 3 0 0 0 1.2-.3c.7-.3.7-.3.7.1 0 .3 0 .4.3.3a11 11 0 0 1 3.5 0l2 .2 4.5 1a29.3 29.3 0 0 0 5.4 1.2c2 .4 2 .5 1.2-.8-.4-.6-.6-1-.5-1.3 0-.2 0-.7-.2-1.1a2 2 0 0 1 0-1.5c0-.6 0-.8-.3-1.4-.4-.7-.4-1.4-.1-1.7.6-.7-2.9-5-5.3-6.7-1-.6-1.9-1.3-2-1.6L57 21c-2.8-.7-3.7-1-4.1-.8a5 5 0 0 1-1.7-.4c-.7-.2-1.3-.4-1.5-.3-.2 0-.7 0-1.2-.2-1-.4-.9-.4-.9 0 0 .3 0 .4-.3.3-1.4-.6-5.8-1-5.8-.5v.3a2023.3 2023.3 0 0 0-4.2.2c-6.3.2-8 .3-7.7.6.4.2.3.6-.2.6s-1 .2-1 .4c0 .3-.1.4-1.6.6-2.2.5-6.1 2.2-5.2 2.3.6.1.5.4-.4.9l-.7.6c0 .1-.3.6-.8 1.1-1.2 1.2-2.4 3.4-1.9 3.4s.5.3 0 1c-.3.6-.3.9-.2 1.1.1.2 0 .6-.1 1.2-.2.6-.3.9-.1 1.1.2.2.1.4-.1 1-.4.9-.4.9 1.2.7 2.6-.3 6-.6 8-.6 1.4 0 2.1 0 2.5-.2.3-.2 1-.3 2.1-.2 1.3 0 1.7 0 1.7-.2 0-.3.5-.3.8 0l1 .1c.9.1 1.4.7 1.9 2.3.5 1.7 1.3 2.2 3.9 2.2l3 .1c1.2.3 1.6.3 2 0z"/><path fill="#957265" d="M16 107c-.2-.2-.3-1.3-.4-2.4-.3-3-.3-2.9-1.1-2.7L7 103.6c-7.5 1.8-7 1.7-7 1.3 0-.5 1-.7 11.7-3.3 6-1.4 5.6-1.3 7.5-2.8 1.8-1.5 2-1.6 3.8-1.4l1.4-.1-.5-4-2-2.2a24.9 24.9 0 0 1-7.5-14.9c-.1-1-.4-2.3-.7-2.9a8 8 0 0 1-.5-2.6c0-1-.4-2.5-.8-3.9-1.3-4.7-1.2-6.3.4-8 1-1 1-1.1-2-11.6-2.4-7.8-2.4-8.4-.2-9.2 1-.4 1-.4 1-1.1-.2-3.7-.2-4.2.1-5.2.3-.8.3-1 .1-1.2-.1 0-.2-.3 0-.9l-.1-.7c-.5 0 .7-4.2 1.8-6.2.7-1.3.7-1.5 0-1-1.1.7-1.2.2-.2-2.2C15.5 13.9 18.6 10.3 24 7c.7-.4.4-.6-1-.5-1.4 0-1.3 0 .9-1.4C32 0 36.7-.8 42.5 1c1.3.4 1.7.3 1.2-.3-.7-.7 3 .4 5.5 1.6 2 1 3.5 2.1 5.3 3.9 1.3 1.2 1.6 1.2 1.1 0s-.3-1.2 1.6.5c4 3.3 6.7 6.7 7.7 9.7.4 1 .4 1 1.5 1.3 2.2.4 4.3 2.1 4 3.2 0 .3.3 1 1 2.3 1 2 1 2 1 4.7a61 61 0 0 0 .6 9.5c.1 2.3.2 2.5 1.8 3.1 2 .8 2 .9-.7 8.4-2 5.4-2.2 7.3-.7 7.3 2 0 2.6 3.4 1.7 10.7-.7 6.1-1.1 7.5-2.6 8.1-.3.1-.6.4-.6.6l-.4 2c-.8 4.7-2.8 9-5.8 12.5-1.4 1.6-1.5 1.8-3 8.7-.3 1-.2 1.3.7 1.5.6.2 1.2.6 3.5 2.3 2 1.5 2 1.5 8.5 3.5a34.3 34.3 0 0 1 3.5 1.2h-1c-.9 0-2.1-.3-3.6-.7-3-1-3.4-1-3.6 0-.4 1.2-.9 1-.9-.2 0-1.1 0-1.1-1-1.5l-2.5-1.7c-2.6-2-2.4-2-2 .6.4 2.4.4 3.4 0 3.6-.3.1-.5-.3-.6-1.2 0-1.3-1.3-3.5-2-3.2l-1 2c-.4 1-.8 1.9-1 1.9l1.1-4.6a348.9 348.9 0 0 0 2.7-11c0-.3.7-1 1.3-1.7 3.8-4 5.7-9 6.4-16.2.4-4.1.7-4.5.8-.8 0 1.2.2 1.5.6 1.1.8-.6 1.3-3 .7-3-.2 0-.1-.2.2-1 .8-1.7.6-4.1-.6-6.7-.4-1-.4-1.7 0-1.6.1 0 .5.7.8 1.5.6 1.8.8 1.6.8-1 0-2.8-.2-3-1.6-2.5-.3.1-.4-.3 0-.8a2 2 0 0 1 1-.6c.5-.1.5-.1 0-.5-.7-.8-1.6-.5-1.8.6-.4 1.7-.6 1.4-.8-1.5-.1-3-.2-3.2-.8-2-1.6 3-4 4.3-9.4 4.4-11.4.4-15.8-3.6-16-14.1 0-3-.7-3.5-4-3.3-2.7 0-2.8.2-3.5 4.5l-.8 3.6c-.6 1.7-.5 2.3.1 1 .4-.8.5-1 .5-.6s0 .4.3.2c.4-.3.3.2-.3 1.4-.4.9-.8 1.1-1.2.7 0-.2-.2-.3-.3-.3l-.8 1.2c-2.3 3.5-4.5 4.4-10.7 4.4-4.4 0-6.7-.3-8.3-1.1-1.3-.7-1.2-1-1.5 3.4-.3 4.2-.4 4.5-.7 4a1 1 0 0 1-.3-.7c0-.4-.5-1-.9-1-.3 0-.2 1 .3 2.8 1 3.6 1.2 4.3 1.2 5.1 0 1 0 1 .3.1.4-1 .5-.6.7 3.2.5 7.4 2.2 11.2 7.8 17.1 2 2.3 2 2.3 2 3.2l.3 3c.4 2.7.6 7.5.4 7.3-.2 0-.5-1.4-.7-3-.2-1.4-.3-1.4-3.3-.3-1.3.5-1.2 1.7.3 5.2.7 1.3.7 1.5.2 1.4-1.1-.2-2.4-4.2-2.2-6.6.1-1.9.2-1.8-1-1-.4.5-1.2 1-1.8 1.2-1 .4-1.1 1.8-.6 5.6.1 1-.4 1.2-.7.4zm46.4-5.4c0-.2 0-.1 0 0v.3-.3zm-39.3-2.2c.8-.2 1.4-.5 1.4-.6-.1-.2-2.6-.5-2.8-.3-.3.3-.6 1.3-.3 1.3l1.7-.4zm-9.5-38.5c-.1-1-.2-1.1-.6-.8-.4.3-.4.5.1 1.3s.7.6.5-.5zM65 58.2c5.8-1.2 9.4-12.4 5.4-16.7-4-4.3-19-5.2-22.7-1.4-1.6 1.6-2 5.3-.7 6.5l.9 1.3c.2.6.2.6-.6 1.7-.7 1 1.4 5.4 3.2 6.6a24.7 24.7 0 0 0 14.5 2zm-9.5-9.4-.7-.1c-.3 0-.5-.3-.7-.8-.4-1-1.3-1-2 .1-.3.5-1.1.6-1.3.1-.7-2 5.6-2.8 10-1.3 3.8 1.3 4 1.7 1 1.8-2.2.1-2.2.2-1.9-.3.2-.3.1-.4-.3-.7-.5-.4-.9-.2-1.3.6s-1.2 1-2.8.6zm.5-1.7-.4-.3c-.3 0-.5.2-.2.4.2.2.6.1.6-.1zm15 1.3c-1.4-6.2-1.4-6.7-.8-6 .8.8 1.2 2.3 1.2 4.1 0 1.7-.3 2.9-.5 2zm-17-9.3c.1-.4.8-.5 3.2-.5 3.4 0 3.5.3.2.4l-3.2.2c-.2.1-.2 0-.2 0zM28.8 56.6c3.4-1 5.6-3.4 7-8 .4-1.7.7-5 .4-5-.2 0-1.4-2.3-1.2-2.5l.6.3c.7.5.8.5.8-.2 0-3.4-10.2-5.9-17.4-4.2-3.3.8-5.2 2-6.2 3.8a30 30 0 0 0 0 9.9c1.1 3.6 2.9 5.3 6 5.8l1.8.2c1.3.2 7.3.1 8.2-.1zm-14.5-4.2c-1.4-3-1.7-8.3-.7-11 .4-1 1.9-2.8 2.1-2.5a133.3 133.3 0 0 1-.5 14.4c0 .5-.5 0-1-.9zm5-2.5c0-.3.8-.8 1-.7.3 0 1.4-.3 3.1-1 4.8-2 8.3-2.2 10.3-.2.4.4.5.5.3.7-.3.4-1.8.4-1.8 0 0-.8-1.3-1-1.5-.1-.2.7-.6 1-1.5 1.2-1.8.4-2.2.3-2.8-.6-.6-.9-.9-1-1.5-.4-.4.3-.4.3-.1.7l.3.4a27.5 27.5 0 0 1-5.8 0zM33 39.5c-.3-.1-.6-.2-.8-.1h-1c-1.5-.4-2.7-.5-2.4-.2.3.5.1.5-2.4.4-2.1-.2-2.6-.3-2.1-.6.2-.1-.8-1-1.2-1a.9.9 0 0 1-.6-.2C21 36 32 37.5 33.6 39c.5.6.1.9-.7.4zm41 7.2c.7-1.9.7-2 .2-2.7-.6-.7-.8-.2-1 2.5-.3 3 0 3 .9.2zm-28.4-7c.5-.4.5-.6.5-1.4 0-1.4.7-3 1.3-3a4 4 0 0 0 1.2-.3c1-.4 1-.4.9 0-.1.3 0 .4.3.3 1-.4 6 0 8.4.7a67 67 0 0 0 9.3 2l-.5-1c-.3-.4-.6-1.1-.6-1.5l-.1-1c-.2-.8-.3-1.8-.1-2l-.2-.7c-.4-.7-.5-1.5-.3-2 .4-1.2-3.5-6-6-7.3l-1.2-1c0-.4-4.9-1.8-5.8-1.6-.2 0-1-.1-1.6-.4-.6-.2-1.3-.4-1.5-.3-.2 0-.7 0-1.1-.2-1-.4-1-.4-1 0 0 .3 0 .4-.2.4-1.6-.6-5.8-1-5.8-.5 0 .3-.1.3-.8.4-3 0-11.3.3-11.6.5l.3.3c.4.3.1.6-.6.6-.2 0-.4.1-.5.3 0 .3-.3.4-.7.5-2.6.4-8.1 2.8-6.5 2.8.5 0 .3.3-.3.7-.4.2-.6.5-.6.6 0 .2-.4.7-.8 1.1-1.3 1.6-2.3 3.6-1.7 3.6.4 0 .4 0 0 1-.4.7-.4.9-.2 1 .2.1.1.3-.2 1.2-.4.8-.4 1-.2 1.1.2.2.2.3 0 .8a8 8 0 0 0-.2.8c0 .2 0 .2 3.9-.2a147.3 147.3 0 0 1 8.6-.7l1.2-.1h2.1c.5.2.5.2.4-.1 0-.3 0-.3.3-.2l1.3.3c1 .3 1.5.8 1.8 2.3.4 1.7 1.2 2.2 4.2 2.2l3.2.1c1.1.3 1.2.2 1.7-.2zm14.1 67.7h.2v.1h-.2zm-16.4-2.6-2-1.1A9 9 0 0 0 37 102c-.8 0-1 0-1.2-.3-.2-.3-.6-.5-1.3-.6-1-.2-1.1-.3-1-.6 0-.3-.2-.4-.6-.6-.3 0-.7-.3-1-.5-.2-.2-.7-.4-1-.4-.4 0-.5 0-.4-.5v-.4a292.3 292.3 0 0 0-4-4h.5c.6 0 1-1 .6-1.6-.3-.5-.1-1.3.3-1.8.3-.3 0-.4-.3 0-.3.3-.5 0-.2-.7.1-.5.1-.6-.1-.8-.2 0-.3-.3-.2-.4v-.4a11 11 0 0 1 0-5c.7-.9 2-.9 1.8 0l.1 1c.2.3.2.5 0 .8-.1.2-.1.5.1.8.3.6.3 1 .1 1.5-.2.4.1 1.5.6 2l.3.9c0 .3 0 .5.2.5l.1.4c0 .5.8.8 1.6.5.5-.1.7-.1 1 .1.3.3.4.3 1.4 0 .8-.3 1.2-.4 1.3-.2h.8c.3-.2.5-.2.6 0l.6-.1c.3-.3.5-.3.8-.1l.7.4c.3.1.5 0 1-.2.4-.3.5-.4.6-.2.1.4.7.5 1 .2 0-.1.2-.2.3-.1l.4-.1c.2-.2.4-.2.5 0 .3.3.6.2.7-.2.2-.6 1.5-.4 1.9.2.3.6.3.6.4.2 0-.8.3-.8 1-.3.6.5.8.6.8.2 0-.4.4-.4 1.2.1.8.6 1.5.6 1.5.1 0-.2 0-.3.2-.3a119 119 0 0 1 1.6.5s.3-.2.7-.2c.3 0 .7 0 .9-.2h.6c.5.2 1.7.2 1.9 0 0-.2.4-.4.7-.5.3-.2.6-.4.6-.6 0-.2 0-.3.2-.2.4.1.4-.2 0-1L58 88c.4-1.4.3-2.4-.1-3.3-.2-.5-.3-.9-.2-1v-.4c-.3-.5-.2-1.3 0-1.4.8-.3 1.5 1 1.7 2.9l.2 1.3.4 1.8c.2 1.2.6 1.8 1.3 2 1.4.2 1.1 3.8-.4 5-.7.5-1 .8-1.3 1.7-.3.8-.5 1-1 1.2l-.7.6a1 1 0 0 1-.7.3c-.2 0-.8.2-1.2.6l-1.3.7a6 6 0 0 0-1.6 1.2c-.6.6-1.2 1-1.3 1-.3 0-1.4.7-2.7 1.8-1 .7-1.2.7-1.3.2-.2-.5-.7-.2-.7.4 0 .8-2.6 1-3.9.3zm1-1.1c0-.4 0-.5-.3-.3l-.4.2v.3l.4.2c.2 0 .3-.1.3-.4zm-4.8-18-1.2-1c-.3-.3-1-.9-1.7-1.2-1.6-.7-1.6-1 0-.8A44.2 44.2 0 0 0 49 82c0 .1-.4.5-1 .9-.6.5-1 .9-1.4 1.8-.4 1-.6 1.2-.8 1-1-.3-3-.2-5.3.2-.2 0-.7 0-1-.3zm-12-5c0-.6 0-.8-.3-.8s-.3-.5 0-1l.2-1.3c0-1.2 2.2-4.1 2.5-3.3.2.4.6.3 1.2-.4.3-.4.9-1 1.3-1.2.4-.3 1-1 1.2-1.5.4-.7.7-1 1.3-1.2l1.4-1c.4-.4.8-.7 1-.7l1.3-.4c1-.4 1.6-.4 1.6 0s.4.2.6-.4c.3-.7.6-.8 1.5-.4.5.2.7.2 1.2 0 1.4-.6 6 0 6 .9 0 0 .3.3.7.4.4.2.7.5.8.8l1.4 1 2 1.3c2.1 2 2.6 2.4 2.6 2.7l.2.5c.3.2.2.4-.2.4-.5-.2-.4 0 .2.6.7.7.7 1.6 0 1.7-.5 0-.1 2.4.6 2.8.3.2.1.5-.4.5-.6 0-.9-.4-1.3-1.5l-1-1.4c-.4-.5-.5-.7-.5-1.4.1-.6 0-.8-.7-1.5l-.8-1c0-.1-.3-.4-.6-.5-.7-.4-1.6-1.4-1.5-1.7a7 7 0 0 0-2.3-1.3c-.1 0-.3 0-.4-.2l-.7-.4c-.3 0-.7-.2-.8-.4-.2-.3-.5-.2-2.1.5-1.2.6-1.2.6-2.9.3s-2.5-.3-2.8.2l-1 .5c-.5.2-1.1.5-1.4.8a30 30 0 0 0-4.7 5.1 25.9 25.9 0 0 1-3 3.8c-.8 1-1.4 1-1.4 0zm5.2-1.4c0-.2 2-2.3 2.2-2.4v.3c0 .6 0 .5 3-.4a12 12 0 0 1 4.6-1H45l2.2.3 3.2.3c1.4 0 3.6 1.2 3.6 2 0 .4-.2.4-1.7-.1-2.9-1-3.8-1.1-8.1-1a21 21 0 0 0-8.5 1.4c-2 .6-3 .9-3 .6zm39.7-10.5c0-.4.1-.7.3-.8l.4-.6c.3-.4.6-.5.6 0 0 .4-.8 1.9-1 2-.2 0-.3-.2-.3-.6zm-37.6-1.5a3 3 0 0 1-1.5-3.3c.2-.8 1-2.7 1.1-2.4v.6c-1 1.8.2 4.7 2 4.7 1.4 0 1.6-.4 1-1.2-.8-1-.2-2.2 1-2.2.7 0 1.5.4 1.7.8.2.4.2.4-.3.3-.3 0-.4.1-.3.6.1 1.7-3 3.1-4.7 2zm12.9-.8c-.4-.3-.5-.5-.4-1 0-.3 0-.4-.3-.4l-.7-.3c-.3-.3-.4-.3-.8 0-.6.4-.6.4-.7-.1 0-.4-.1-.3-.5.5-.3.6-.5.8-.7.8l-.3.1c0 .5-1.6-.1-2.3-.8-.3-.4-.3-.4.6-.3 1.2.2 2.5-.3 2.8-1 1-1.9 4.2-.6 3.8 1.5-.1.6-.1.7.5.7 1.5 0 2.8-1.2 2.8-2.5 0-.7.3-1.1.4-.7 1 2.6-2.1 5.2-4.2 3.5zm3.5-4.8v-.5l.2.3v.5l-.2-.3zM36.6 60c-.4-.3-.3-1 .1-1s.5.3.2 1c0 .2-.2.2-.3 0zm12.8-.8-.8-.2c-.8-.1-.9-.4-.2-.5.5 0 1.6.4 1.6.7 0 .2-.5.2-.6 0zM38 47.2c0-.2 0-.4.2-.5.3-.2.3 0 0 .4-.2.3-.2.3-.2 0zm.5-1c-.1-.5 0-.7.2-1.2.2-.3.3-.8.3-1 0-.4.2-.5.5-.2.1.1.4 0 .7-.1 1.6-.8 5.2.1 4.2 1-.2.2-1-.3-1-.6-.1-.3-.1-.3-.5 0-.3.3-.7.4-1.7.4-1.6 0-2 .3-2 1.3-.2.8-.4 1-.7.3z"/><path fill="#45322b" d="M16 106.6a41.4 41.4 0 0 1-.8-4.9c-.1-.1-13.9 3-14.9 3.4-.3.1-.3 0-.3-.2.1-.4.7-.5 10.4-2.8 7.3-1.8 7.1-1.7 9-3.3 1.6-1.3 2.2-1.5 3.7-1.3 1.6.2 1.7 0 1.3-2.3l-.3-1.6c0-.4-.6-1.1-2.1-2.7a24.7 24.7 0 0 1-7.4-14.3c-.2-1.4-.6-2.9-.8-3.3-.3-.6-.4-1.5-.5-2.8-.1-1.2-.4-2.5-.7-3.4-1.3-4.5-1.3-6.6.1-8C14 58 14 58 11 47.4c-2.3-7.8-2.3-8.3-.8-9 1.7-.7 1.6-.6 1.5-1.9-.1-2.2 0-3.6.3-4.8.3-.8.3-1.1.1-1.2-.1-.1-.2-.4 0-1 0-.4 0-.7-.2-.7-.6 0 .8-4.2 2.2-6.6.7-1.1.6-1.2-.5-.6-1 .5-1 .5-.4-1.3 1.9-5.4 5.6-9.9 10.6-12.8 1.5-.9 1.5-1.2-.2-1-1.4 0-1.1-.3 2.2-2.2 6.9-4 11-4.8 16.2-3.2 2.2.7 2.8.7 2.3.3-.5-.7-.2-.7 1.8 0 3.2 1 6 2.7 8.5 5.2 1.5 1.6 2 1.6 1.3.1-.4-1.1-.2-1 1.8.6a25 25 0 0 1 7 9c.4 1.3.4 1.3 1.8 1.6 2 .4 3.9 1.9 3.6 2.8 0 .2.2 1 1 2.4 1 2.2 1 2.2 1 4.7l.2 4 .5 4.7c.3 3.6.2 3.5 2 4.2 1.6.7 1.6 1.3.1 5.5-2.8 8-2.6 7.4-2.5 8.8.2 1.2.2 1.2 1 1.4 1.7.5 2 1.5 2 5.7-.4 7.7-1.2 12-2.7 12.7-.8.5-.9.5-1.2 2.5a26 26 0 0 1-5.7 12.6 7 7 0 0 0-1.7 2.4c-.5 2-1.6 6.6-1.6 7.1-.1.6 0 .7 1.2 1.3.6.3 2 1.2 3 2 2.1 1.6 2 1.5 6.8 3 4.7 1.5 5.5 1.8 4.6 1.8-.4 0-.9 0-1.2-.2l-5.8-1.6c-.4 0-.4.2-.6 1.2-.2 1-.6.7-.5-.4 0-1 0-1-1-1.6l-2.9-2c-1.7-1.2-2.4-1.5-2.4-1.2l.4 2c.4 2.2.5 3.8.1 3.8-.1 0-.2-.3-.2-.7a5 5 0 0 0-1.4-3.4c-.8-.8-1-.7-1.7.8l-.7 1.3 3.3-13.4c.3-1 .5-1.3 1.5-2.4 3.8-4 6.4-11.3 6.4-17.5 0-.2.1-.3.2-.3s.2.4.2.9c0 2.9 1.8 1.2 1.9-1.7l.2-2c.5-1.1 0-4.4-.8-6-.2-.6-.4-1-.2-1.1 0-.1.3.2.5.9.8 2.2 1 2.4 1.2 1.7.7-2.2 0-5.7-1.1-5.5h-.6c0-.4.7-.8 1.2-.8s.5-.3 0-.8c-.8-.8-1.8-.6-2.1.4-.3.8-.5.3-.5-1.7-.1-2.9-.4-3.2-1.2-1.5-2 3.7-7 5.1-14.4 4-7.5-1.1-10-4.2-10.6-13.4-.2-3.3-.6-3.7-3.7-3.8-3.1-.1-3.3 0-4.1 4.4-1.4 7.2-3.5 10.2-8.1 11.4a27 27 0 0 1-13.5-1c-.8-.4-1.2-.4-1.2.2a118 118 0 0 1-.5 6.7c0 1-.4-.3-.4-1.4 0-1.8-.3-2.4-.9-1.8-.5.4-.5.6 0 1.4.4.7.5.9.1.8-.9-.4-.8 1 .2 4.3.4 1.5.7 2.7.7 3.7.1 2 .6 3.3.6 1.6 0-.2 0-.5.2-.5 0-.1.2 0 .2.2 0 7.8 2.2 13.3 7.9 19.3 1 1 2 2.1 2 2.3 0 .1 0 1.4.3 2.9.4 3 .6 6.7.4 6.3l-.3-1.2c-.2-1.5-.8-1.5-3.8-.2-1.1.5-1 2.4.6 5.4l.3.9c-.1 0 0 0 0 .1.3.2.3.2 0 .2-1 0-2.3-4-2.2-6.5.2-2 .1-2.1-1-1.2-1 .8-1.7 1.3-2.2 1.3-1 0-1 1.9-.3 6 .1.9-.5.4-.6-.5zm46.9-4.6c0-.6-.5-1-.8-.8-.2.4-.2.5.1.8.4.4.7.4.7 0zM23 99.6c2.2-.6 2.2-1 .1-1.4-1.5-.2-1.8 0-2 .9-.3.8-.2 1.1.2 1l1.7-.5zm41.2-41.1c5-.8 7.5-5 7.5-12.2 0-3-.2-3.8-1.6-5.1-4.4-4.2-19-5-22.6-1.3-1.7 1.7-2.2 5.8-.8 6.9l.8 1c.3.6.3.7-.6 1.8-.5.7 1.1 4.6 2.5 6 1.2 1.2 4 2.3 7.4 3l7.4-.1zm-9-10c-1-.1-1-.2-1.2-.8-.2-1-2.2-.9-2.6.1 0 .2-.2.3-.4.3-.3 0-.3 0 0-.4 1.7-1.8 5.4-2.1 9.6-.7 2.7.9 3.2 1.2 1.9 1.2l-1.6.2c-.6 0-.7 0-.7-.4 0-.3-.1-.5-.7-.7-.8-.4-1-.4-1.6 1-.4.5-1 .6-2.6.3zm.8-1.4c0-.3-.1-.4-.5-.4-.6 0-1 .5-.4.7.5.2 1 0 1-.3zm14.7.3-.5-2.6c-.6-2.4-.6-2.6-.2-2.3.7.6 1.4 4.2 1 5.2-.1.4-.2.4-.3-.3zm-42 9.4c4.9-1.3 8.3-7.6 7.8-14.4-.6-7.7-21.7-8.5-24.1-.9-1.7 5.2.9 13.5 4.4 14.7 2.4.8 9.6 1.1 11.8.6zm-14.5-4.5c-1-2.6-1.5-7-.8-7.7 2.3-2 2.2-2 2 3.2-.4 5.6-.5 6-1.2 4.5zM27 49.6c-.2 0-.5-.4-.7-.8-.4-.8-.5-.9-1.4-.4-.5.3-.7.5-.7.8 0 .4 0 .4-1.5.4-1.7 0-1.7 0 .2-1 3.5-1.6 6.4-2.2 8.5-1.6.9.2 2.4 1.2 2.4 1.4 0 .3-.5.5-.7.2-.8-1-2.3-1-2.5-.2-.3 1-2.7 1.8-3.6 1.2zm2.2-1.6c.2-.2.2-.3-.2-.3-.2 0-.3.1-.3.3l.1.2c.1 0 .3 0 .4-.2zm2.4-9.5c-.3-.1-.7-.2-.8-.1-.2 0-.4 0-.4-.2s1.4 0 1.7.2c.3.3 0 .3-.5.1zm42 9.7c1.2-3.3 1.2-4.3.3-4.7-.6-.2-1 1.8-1 4.4 0 1.5.2 1.6.7.3zm-28-8.4c.6-.3.6-.4.6-1.4 0-1 .6-2.9.9-2.7l1-.3c1-.4 1-.4 1 0 0 .3 0 .3.5.1.6-.2 3.2-.4 3.3-.1l1.3.1c1.2 0 4.7.7 5.4 1 .3.3 7.3 1.7 7.8 1.7.4 0 .4-.3-.3-1.3-.6-.7-.6-1-.4-1 .2-.2.2-.3 0-.6-.2-.5-.3-.8-.3-2a4 4 0 0 0-.3-1.4c-.3-.6-.4-1.6-.2-1.9.6-1-3.3-5.9-5.9-7.5-.8-.5-1.3-.9-1.3-1.1 0-.2-.1-.4-.4-.4a35.7 35.7 0 0 0-7.4-1.7c-.7-.2-1.4-.4-1.6-.3-.2 0-.6 0-1-.2-1-.3-1.2-.3-1.2 0s.2.3-1.8 0c-3.4-.5-4.5-.5-4.5-.1s0 .4-3.7.5c-5.8 0-9 .4-8.4.8.4.4.4.5-.3.5-.4 0-.5.2-.5.4 0 .3-.1.4-1.2.6-2.8.5-6.4 2.2-6.2 3 0 .2 0 .4-.4.7-.4.2-.6.4-.5.6 0 .2-.2.6-.6 1-1.2 1.5-2.3 3.9-1.7 3.9.2 0 .2.1-.1.8-.3.6-.3 1-.2 1 .1.2 0 .6-.2 1.2-.4 1.1-.4 1.3 0 1.3.2 0 .2 0 0 .6-.4.8-.3 1 .5 1a104.2 104.2 0 0 1 16-1.1c0-.4 0-.4 1.3 0 1.1.4 1.3.7 1.6 2 .4 1.8 1.3 2.2 4.4 2.3 1.5 0 3 0 3.3.2.9.2 1 .2 1.7-.2zM42.5 103c-.1-.2-.5-.3-1-.3l-1.6-.3-1.8-.4a5 5 0 0 1-1.7-.6c-.3-.2-.8-.5-1.1-.5-.3 0-.7-.3-.8-.5-.1-.2-.6-.4-1.1-.6l-1.2-.5c-.2-.2-.6-.3-1-.3s-.4 0-.3-.5c0-.4 0-.5-.2-.6a9.2 9.2 0 0 1-2.8-2.8c0-1 1.4-2.5 2-2l.6.2c.3 0 .6.1.9.4.2.4.5.5 1 .5.4 0 .8 0 .9.2h.7c.4-.2.6-.2.8 0 .5.4 1.2.3 1.6-.2.4-.7 1-.7 1-.1 0 .4.1.4.7.4.5 0 .6.1.7.4.1.4.1.4.6 0 .2-.2.6-.4.9-.4.2 0 .6-.1.8-.3.1-.2.4-.4.6-.4.4 0 1.3-.4 1.5-.8l.4-.2c.2 0 .4-.1.4-.4 0-.4.3-.5.5-.2s.4.2.4 0c0-.5.4-.4.7.2.4.8 1.7 2.2 1.7 1.9 0-.3.1-.3.8-.2h1c.4-.4.8-.2 1 .5.4.8 1.4 1 1.2.4-.2-.6.3-.8 1-.5.3.2.3.2.3-.1 0-.5.5-.6 1-.2.6.4.7.4 1.1-.1.3-.4.4-.5.8-.4h.4c0-.2.1-.2.3-.2l.6-.3c.2-.2.6-.3.8-.3.2 0 .6-.3 1-.7.7-.6 1-.7 2.1-.5l.3.4c0 .3.2.5.3.5.8 0 .3 1.2-.9 2.2-.6.5-.8.9-1 1.5-.1.5-.3.9-.6 1l-.7.7-.6.3c-.5 0-1.3.4-1.6.8l-1 .5c-.4 0-1 .5-1.6 1-1.3 1.3-3.3 2.3-3.5 1.9-.1-.2-.2-.3-.4-.2-.5.4-1.6.7-1.8.5a60.8 60.8 0 0 1-3.8.3c-1.1.3-1.1.3-1.3 0zm-3.1-18.8a20 20 0 0 1-3.5-1 37.4 37.4 0 0 0 12-.7c.4-.2-.6.8-1.4 1.2-.8.4-5.5.8-7.1.5zm-6.4-5c0-.3.9-1 1.2-1l2.6-.7c4.8-1.5 14.1-1.4 16.3.3 1 .7.6.7-1.4.1a28.8 28.8 0 0 0-17.1.9c-1.5.6-1.6.6-1.6.4zM72.5 69c-.1-.3.1-.9.4-.9.2 0 .2.4 0 .8-.3.3-.3.3-.4.1zm-37-1.6a2.7 2.7 0 0 1-2-3.5c.1-.5.1-.5.3.5.2 1.8 1 2.6 2.5 2.6l.9.2c0 .1 0 .2-.3.2h-.6a2 2 0 0 1-.8 0zm12.9-.8 1-.3c1.1-.2 1.6-.5 2-1.5.3-.7.3-.7.3 0 0 1.1-.7 1.8-2.2 1.9h-1.1zm-6.2-1c-.5 0-.4-.3.1-.3l.8-.2c.2 0 .3 0 .2.2 0 .2-.7.5-1 .4zm-5-.6c-.4-.8.7-1.6 1.8-1.3.6.2.5.4-.6 1-1 .6-1.1.7-1.3.3zm9.3-.6-1.3-.6c-.7 0 0-.4.7-.5.9 0 2 .7 2 1.3 0 .4-.2.4-1.4-.2z"/><path fill="#1d1918" d="M16.3 107.4h.3l-.2.1c-.2 0-.3 0-.1-.1zm5.7 0h.3l-.2.1c-.2 0-.2 0-.1-.1zm42.2 0h.2l-.1.1c-.1 0-.2 0-.1-.1zm5.8 0h.1v.1zm7.8 0h.6-.6zm-56.4-1.2a8.6 8.6 0 0 1-1-5c0-2.7 0-2.7-1.6-1.4a7 7 0 0 1-1.8 1c-1.1.4-1.3 1.6-.8 5.5v.1c-.2-.3-.3-1.5-.4-2.6-.3-2.5-.3-2.4-1.2-2.3-.5 0-9.6 2.2-13.8 3.2-.3.1-.3.1 0 0 .3-.2 5.5-1.5 13.7-3.4 3.1-.8 3.1-.8 4.7-2.1 1.9-1.6 2.4-1.8 4-1.5 1.7.2 1.8.1 1.2-3-.2-1.8-.2-1.8-1.6-3.2-5-5-7-8.9-8-15-.3-1.6-.6-3-.8-3.4-.3-.5-.5-1.3-.6-2.7a16 16 0 0 0-.6-3.4c-1.3-4.2-1.3-6.5.3-7.9 1-1 1-1.9-2-11.8-2.3-7.8-2.3-8.3-.4-9 1.3-.5 1.3-.6 1.1-2.5-.2-1.9-.1-3 .4-4.5.3-1 .3-1 0-1.2-.1-.2-.2-.4 0-.7.2-.7.2-1-.1-1-.4 0-.4 0 .3-2 .5-2 1.3-3.5 2-4.7.7-1 .4-1.3-.6-.6-1 .6-1 .6-.5-.9 2.3-6.7 6.5-10 13-10.2 3.1-.1 5.7.6 3.3 1-2.8.3-8 1.7-8.4 2.2h2.6c3.8-.1 3.7 0-.8 1.8-2.7 1-2.7 1.1.2.8 3-.3 5.2-.1 5.7.4.3.3.7.4 2.5.5 2.5.1 2.6 0 .3-.8-2.5-.8-2-1 1.2-.4 2.9.5 2.7-.1-.4-1.6-2.5-1.2-1.9-1.3 1.9-.2l3.1 1c1.5.5 1.6.3.4-1a11.8 11.8 0 0 0-9.6-4.8c-2 0-2.2-.3-.7-1 3.6-1.6 9-1 13 1.5.8.4 1.6 1 2 1.1.7.5-3.6-3.7-5-4.6-1.9-1.5-1.4-1.5 2.2 0 3.1 1.2 3 1.2 3 1 0-.6-3.4-2.6-6.6-3.8-3-1.1-2.8-1.3 1.2-.6a22 22 0 0 1 8.4 3.2c1.2.8 1.2.5-.1-.9C43.9 3 44 3 46.8 4.3c2.1 1 2.3 1 1-.3-1.4-1.5-1.2-1.7.5-.8 6 3.4 10 6.9 13.3 12 1.2 1.9 1.5 2 1.7 1 .3-1.8.3-1.7.6-1.3.2.2.5.8.6 1.4.5 1.4.7 1.6 1.7 1.7 1 .2 2.5.8 3 1.5.7.7.5.7-1 .2-2.5-.8-2.7-.6-1 .5 1.5.9 1.7 1.2 1.4 1.4-.2 0-.1.3.5 1 1.4 1.5 1.3 1.8-.3 1.4-1.2-.4-1.3-.3-.6.3.3.3.6.7.6 1 0 .2.4.6.8.8.8.7.8 1.1 0 .7-1-.3-.8-.2.9 1.7 1.7 1.8 1.6 1.4 2 8 .4 3.7.4 3.6 2 4.3 2 .8 2 .4-1.5 10.5-1.2 3.3-1.1 5 .3 5.3 1.7.4 2 1.3 1.8 5.5-.2 7.8-1 11.7-2.7 12.7-.7.4-.8.5-.9 1.3a25.7 25.7 0 0 1-6 13.9L64 91.7l-1.9 7.7c-.1.7.2 1 1.2 1.4.4.1 1.7 1 2.9 1.8 2.4 1.8 2.5 1.9 7 3.2l3.2 1.1-2.6-.6c-3.3-1-3.3-1-3.5.2-.2.5-.2.5-.2-.2 0-1 0-1.1-1-1.6-.5-.2-1.8-1-3-1.9-2.9-2.1-2.9-2.1-2.3 1 .2 1.2.4 2.4.3 2.8v-.1c-.2-2-2-4.5-2.8-3.7-.4.4-.5.9 1-5.4 1.6-6.6 1.5-6.2 2.8-7.6 3.4-3.6 5.5-8.7 6.2-14.9 0-1 .1-1 .3-.7.6 1.5 2.2-1 2.3-3.6l.3-2v-1.9c-.1-.9 0-1 .2-1.3 1-1 .5-6.6-.7-6.6-.4 0-.4 0-.2-.2h.5c.4.3.8 0 .7-.5-.4-1-2-1.6-2.7-1-.4.4-.4.2-.6-2.1 0-1.1-.1-1.7-.3-1.8-.2-.2-.2-.5.2-1.7 2.9-10-2.8-14.7-17-14.1H53a31 31 0 0 1 12.5.7c2.5.6 2.7.5 2-.9-.5-.7-.6-1-.4-1 .4 0 .4-.1 0-.6V35c.1-.1 0-.3-.1-.5-.2-.3-.3-.7-.3-1.2s-.2-1.1-.4-1.4c-.2-.4-.3-.9-.2-1.5 0-1.8-3-6-5.7-7.9-.8-.5-1.2-.9-1.2-1.1 0-.4 0-.4-4.4-1.5l-2.8-.6c-.2 0-.8 0-1.3-.3l-1.8-.4-1.4-.2-.9.1c0 .2-.4.2-1.6 0-3-.4-4.8-.4-4.8 0l-.4.2-.6.1c0 .1-1.2.2-2.6.2-6 0-8.9.4-8.7 1 0 .2 0 .3-.5.4-.4.1-.5.2-.4.5 0 .2 0 .3-.6.4-3 .6-6.6 2.4-6.6 3.3 0 .2-.2.5-.5.7-.3.2-.4.4-.3.6 0 .3-.1.6-.5 1-1.2 1.6-2 3.7-1.7 4v.9c-.2.3-.2.7-.2.9 0 .2 0 .8-.3 1.4-.4.8-.4 1-.2 1.2l.2.8c0 .6 0 .6 1.2.6 1.1 0 1.1 0-.4.5-4.4 1.6-5.3 3.1-5.1 8.9.2 8.8 2.8 11.1 12.3 11.1 6 0 8.4-1.2 10.4-5.2 2.6-5.4 2.9-11.3.5-13a17.3 17.3 0 0 0-6.6-2.6c-2.5-.3-2.6-.5-.6-.5 1.3 0 2 0 2-.2 0-.1.3-.1.8 0 .4.1 1 .2 1.2 0 .3 0 .7.1 1 .3.5.3.6.2.7 0 .3-.9 1.9.3 2.2 1.6.3 1.3 2 2.8 2.8 2.5.5-.2 3.8-.1 5.1.1 1.2.2 1.2.2 2-.3a4 4 0 0 1 1-.6l.6-.4c.4-.4 1.7-.9 2.3-.9l-.8.7c-3 1.8-4.3 6.1-2.5 8.2 1.2 1.2 1.2 1.5.7 2-1 1.1 0 4.4 2 6.8.7.7.7.7 0 .2-2-1.6-3-4.2-3.6-10.2-.4-4-.8-4.4-4.2-4.4-3 0-3.3.3-4 4.1-1.2 6.3-2.9 9.4-5.9 11-3.3 1.6-13 1.5-15.6-.3-1.2-.8-1.3-.6-1.6 2.2-.2 2.5-.2 2.5-.5 1.8-.2-.6-.7-.8-1.1-.3-.5.6-.5 1-.1 1.4.3.5.3.5 0 .7-.7.4-.7 1.4.5 5 .4 1.3.6 2.4.6 3.6.1 2 .3 2.5.7 2.3.2 0 .3.2.4 1 .8 7.8 2.4 11.3 7.7 17 2.2 2.3 2 1.8 2.5 6.2.2 1.7.2 2.4.1 2.5-.3.3-.5 0-.2-.3.5-.6-.2-1.1-2.1-1.3-1.5-.1-1.8.2-2 1.6 0 1 .1 1 1.7.6 1.3-.4 1.1-.2-.2.3-2.3.7-2.4 1.5-.8 5.3.6 1.5.6 2 0 .5zm41.8-3.9c0-.6-.5-1.4-.9-1.4-.8 0-.7 1.1.1 1.6.6.4.8.3.8-.2zm10.1-53c1-2 1.6-4.5 1.3-5.1-1.1-2-1.6-1.2-1.9 3.2-.2 2.5 0 3.1.6 2zM31.6 17.9c-.9-.8-4.4-1.3-6-.9-.8.2-.9.2 2.3.6 3.2.5 4 .6 3.7.3zM.1 105v-.3c.1-.2.3 0 .2.3 0 .2 0 .2-.2 0zm39.4-4.6c-3.6-.5-6.8-1.7-9.3-3.6-2.3-1.8-1.9-1.8 1.4-.2 8 4 16.2 4 24.2 0 2.7-1.3 3-1.4 2.9-1-.3 1.1-6.8 4.2-9.7 4.6-2.2.2-8 .3-9.5.2zm1-16.9c0-.1.6-.2 1.8-.1 1.6 0 1.7 0 1 .1-1.4.2-2.6.2-2.7 0zm12-5.8h.1-.1zm-.5-.2h.2v.1c-.2 0-.3 0-.2-.1zm-14.6-13c0-.4.4-.7 1-.7.7 0 .6.2-.3.7-.6.4-.7.4-.7 0zm9-.5c-.9-.4-.9-.5-.3-.5l1 .4c.6.6.2.6-.8 0zM26.7 49.2l-.8-1.6 2.4-.5c1.3-.2 3.5 0 2.8.2-.5.2-.6.3-1 1.2-.2.8-2.8 1.4-3.4.7zm2.7-1.1c.2-.3.2-.4 0-.6-.4-.3-1.2 0-1.2.6 0 .5 1 .5 1.2 0zM23 49.2c-.2-.1.3-.5 1-.8.5-.2.5-.2.2.2l-.3.5c0 .2-.7.3-1 .1zm32.5-.9c-.6-.1-.5-.4 0-.5 1-.2 1-.2 1-1 0-.5 1.5-.7 2-.2.8.9-1.3 2-3 1.7zm5.2-.7c-.3-.5-.2-.5.9-.1.6.2.8.3.6.4-.5.3-1.2.2-1.5-.3zm-28.6 0-.2-.2c.1 0 .3 0 .5.2l.2.3-.5-.3zm38.8-1.2a597.7 597.7 0 0 0-.5-3.1c.1-.2.6 1.4.7 2.4.1 1 0 1.5-.2.7zm-24.4-8.1c-.3-1.2 1.6-3.4 2.2-2.5.2.3.3.3.8 0 .4 0 1.2-.2 1.9-.1a80.9 80.9 0 0 0 3.6.2s0 .2-.2.2-.5 0-.7.2l-1 .4c-1 .1-1.3.4-1 .7 0 .2 0 .3-.5.3H51c-.2-.5-3 .2-3.8.8-.4.4-.5.3-.7-.2z"/></svg>