<svg xmlns="http://www.w3.org/2000/svg" xmlns:xlink="http://www.w3.org/1999/xlink" version="1.1" id="layer" x="0px" y="0px" style="enable-background:new -153 -46 652 652;" xml:space="preserve" viewBox="-131.5 230.1 600 90.3">
<style type="text/css">
	.st0{fill:#FFFFFF;}
</style>
<path class="st0" d="M24.9,267.1v18h4c2.7,0,4.1-1.2,4.1-5v-8c0-3.8-1.4-5-4.1-5H24.9z M41.3,272.7v6.9c0,8.5-4.1,13.2-12.5,13.2h-4  v20h-8.4v-53.3h12.3C37.2,259.5,41.3,264.1,41.3,272.7 M46.4,259.5h8.4v45.7h9l-1.6,7.6H46.4L46.4,259.5 M76.9,295.9h8.1l-4-26.9  L76.9,295.9z M96,312.8h-8.4l-1.4-9.7H75.8l-1.4,9.7h-7.7l8.5-53.3h12.3L96,312.8 M108.5,274.2v38.6H101v-53.3h10.5l8.6,31.9v-31.9  h7.5v53.3H119L108.5,274.2 M143.2,281.9h11.5v7.6h-11.5v15.6h14.5v7.6h-22.8v-53.3h22.8v7.6h-14.5V281.9 M176.8,258.9  c8.1,0,12.3,4.9,12.3,13.4v1.7h-7.9v-2.2c0-3.8-1.5-5.2-4.2-5.2c-2.7,0-4.2,1.4-4.2,5.2c0,11,16.4,13,16.4,28.2  c0,8.5-4.3,13.4-12.5,13.4c-8.2,0-12.5-4.9-12.5-13.4v-3.3h7.9v3.8c0,3.8,1.7,5.2,4.3,5.2c2.7,0,4.3-1.4,4.3-5.2  c0-11-16.4-13-16.4-28.2C164.5,263.8,168.7,258.9,176.8,258.9 M203.6,267.1v18h4c2.7,0,4.1-1.2,4.1-5v-8c0-3.8-1.4-5-4.1-5H203.6z   M220.1,272.7v6.9c0,8.5-4.1,13.2-12.5,13.2h-4v20h-8.4v-53.3h12.3C215.9,259.5,220.1,264.1,220.1,272.7 M232.8,300.5  c0,3.8,1.7,5.3,4.3,5.3c2.7,0,4.3-1.4,4.3-5.3v-28.8c0-3.8-1.7-5.2-4.3-5.2c-2.7,0-4.3,1.4-4.3,5.2V300.5z M224.5,272.3  c0-8.5,4.5-13.4,12.7-13.4c8.2,0,12.7,4.9,12.7,13.4V300c0,8.5-4.5,13.4-12.7,13.4c-8.2,0-12.7-4.9-12.7-13.4V272.3 M254.1,259.5  h22.7v7.6h-5.6v45.7h-8.4v-45.7h-8.8V259.5 M282.4,259.5h22.7v7.6h-8.8v45.7H288v-45.7h-5.6V259.5 M318.4,281.9h11.5v7.6h-11.5v15.6  h14.5v7.6H310v-53.3h22.8v7.6h-14.5V281.9 M347.6,267.1v16.4h3.3c3.1,0,5-1.4,5-5.6v-5.3c0-3.8-1.3-5.5-4.3-5.5H347.6z M356.7,312.8  c-0.5-1.4-0.8-2.2-0.8-6.5v-8.4c0-4.9-1.7-6.8-5.5-6.8h-2.9v21.7h-8.4v-53.3h12.6c8.7,0,12.4,4,12.4,12.3v4.2  c0,5.5-1.7,9.1-5.5,10.8c4.2,1.8,5.6,5.8,5.6,11.3v8.2c0,2.6,0.1,4.5,0.9,6.5H356.7 M382.3,258.9c8.1,0,12.3,4.9,12.3,13.4v1.7h-7.9  v-2.2c0-3.8-1.5-5.2-4.2-5.2c-2.7,0-4.2,1.4-4.2,5.2c0,11,16.4,13,16.4,28.2c0,8.5-4.3,13.4-12.5,13.4c-8.2,0-12.5-4.9-12.5-13.4  v-3.3h7.9v3.8c0,3.8,1.7,5.2,4.3,5.2c2.7,0,4.3-1.4,4.3-5.2c0-11-16.4-13-16.4-28.2C370,263.8,374.2,258.9,382.3,258.9 M9.2,260.7  c-0.8-2.2-6.7-1.9-8.9-0.9c-8.2,3.6-16.5,7.3-24.7,10.9l-30.7-9l-2.8,3.6l14.1,14c-4.5,2-11,5-16.4,7.5l-13.6-5l-2.2,2.4l6.9,6.7  c-0.1,0.9,15.8,1.6,19.5,0.6c0,0,29.7-12.9,42.9-18.7c3.4-1.5,6.8-3,10.1-4.5C5.7,267.3,10.1,263.1,9.2,260.7 M415,284.8v28.4h-5.5  V274h7.7l6.3,23.4V274h5.5v39.2h-6.3L415,284.8 M439.6,290.5h6.9v5.6h-6.9v11.5h9.1v5.6h-15.2V274h15.2v5.6h-9.1V290.5 M452.2,274  h15.9v5.6h-4.9v33.6h-6.2v-33.6h-4.9L452.2,274 M468.5,264.6h-59v-3.2h59V264.6 M-98.7,320.4l-1.3-2.9l44.7-19.9l1.3,2.9  L-98.7,320.4 M-114.4,316.7l-1.3-2.9l36.6-16.3l1.3,2.9L-114.4,316.7 M-130.2,311.8l-1.3-2.9l39-17.2l1.3,2.9L-130.2,311.8   M2.6,247.2h-4.7v-12.3h-18.7v-4.7H2.6V247.2 M-78.7,253.5h-4.7v-23.4h23.4v4.7h-18.7V253.5 M2.6,313h-23.4v-4.7h18.7v-18.7h4.7V313  "/>
</svg>