<svg width="250" height="77" viewBox="0 0 250 77" fill="none" xmlns="http://www.w3.org/2000/svg">
<path d="M38.2885 56.7313C28.1634 56.7313 20 48.5047 20 38.4428C20 28.3177 28.1634 20.1543 38.2885 20.1543C48.3504 20.1543 56.577 28.3177 56.577 38.4428C56.577 48.5047 48.3504 56.7313 38.2885 56.7313ZM38.2885 55.4024C47.6543 55.4024 55.2481 47.8086 55.2481 38.4428C55.2481 29.0771 47.6543 21.4832 38.2885 21.4832C28.9228 21.4832 21.3289 29.0771 21.3289 38.4428C21.3289 47.8086 28.9228 55.4024 38.2885 55.4024Z" fill="white"/>
<path d="M38.415 50.7827C31.5805 50.7827 26.0117 45.2138 26.0117 38.3794C26.0117 31.5449 31.5173 25.9761 38.415 25.9761C45.3128 25.9761 50.755 31.5449 50.755 38.3794C50.8183 45.2138 45.2495 50.7827 38.415 50.7827ZM38.415 49.4537C44.5534 49.4537 49.4894 44.4544 49.4894 38.3794C49.4894 32.241 44.4901 27.305 38.415 27.305C32.2766 27.305 27.3406 32.3043 27.3406 38.3794C27.3406 44.4544 32.2766 49.4537 38.415 49.4537Z" fill="white"/>
<path d="M38.4141 44.7077C34.8703 44.7077 32.0859 41.86 32.0859 38.3795C32.0859 34.8357 34.9336 32.0513 38.4141 32.0513C41.9579 32.0513 44.7424 34.899 44.7424 38.3795C44.8056 41.86 41.8947 44.7077 38.4141 44.7077ZM38.4141 43.3788C41.1986 43.3788 43.4134 41.1639 43.4134 38.3795C43.4134 35.5951 41.1986 33.3802 38.4141 33.3802C35.6297 33.3802 33.4149 35.5951 33.4149 38.3795C33.3516 41.1639 35.6297 43.3788 38.4141 43.3788Z" fill="white"/>
<path d="M38.3524 39.2024C37.9727 39.2024 37.6562 38.886 37.6562 38.5063C37.6562 38.3797 37.7195 38.3164 37.7195 38.2532V38.1899L44.6173 21.4834C48.0345 22.4959 50.8189 24.7108 53.0971 27.7483L38.7953 39.0125L38.6055 39.1391C38.5422 39.1391 38.4789 39.2024 38.3524 39.2024Z" fill="url(#paint0_linear_1625_236417)"/>
<path d="M71.063 30.8486L62.3301 45.7199H66.0637L67.5825 43.0621H72.8982L73.2779 45.7199H76.885L74.6701 30.8486H71.063ZM68.8481 40.5941L72.0755 34.5823L72.6451 40.5941H68.8481ZM83.5929 31.6713H80.4288L79.8592 34.076H83.0233L83.5929 31.6713ZM79.6061 35.2784L77.3279 45.7199H80.492L82.7702 35.2784H79.6061ZM90.6172 37.6198L91.1234 35.1518C90.9969 35.1518 90.9336 35.1518 90.807 35.1518C90.6805 35.1518 90.6172 35.1518 90.4906 35.1518C89.7945 35.1518 89.1617 35.2784 88.5921 35.4049C88.0859 35.5948 87.6429 35.7846 87.2632 36.0378C86.9468 36.2909 86.6304 36.544 86.4406 36.7971L86.757 35.3417H83.7194L81.5045 45.7832H84.6687L85.6179 41.5433C85.6812 41.3535 85.6812 41.2269 85.7444 41.037C85.8077 40.8472 85.8077 40.7206 85.871 40.5308C86.0609 39.898 86.314 39.3917 86.6304 39.012C86.9468 38.6323 87.3265 38.3159 87.6429 38.1261C88.0226 37.9362 88.4023 37.8097 88.7187 37.6831C89.0984 37.6198 89.4148 37.5565 89.7312 37.5565C89.8578 37.5565 89.9843 37.5565 90.1742 37.5565C90.364 37.5565 90.4906 37.5565 90.6172 37.6198ZM102.577 30.8486L100.616 40.4042H100.552L96.5657 30.8486H93.2117L89.9843 45.7199H93.4649L95.4899 36.1643H95.5532L99.4767 45.7199H102.894L106.121 30.8486H102.577ZM114.981 35.7846C114.664 35.5315 114.221 35.2784 113.715 35.1518C113.146 34.962 112.449 34.8987 111.564 34.8987C111.31 34.8987 110.931 34.8987 110.551 34.962C110.108 34.962 109.665 35.0252 109.222 35.1518C108.716 35.2784 108.21 35.4682 107.767 35.7214C107.26 35.9745 106.881 36.3542 106.501 36.8604C106.121 37.3034 105.805 37.9362 105.615 38.6956H108.969C109.096 38.3159 109.222 37.9995 109.412 37.8097C109.602 37.6198 109.792 37.43 110.045 37.3034C110.298 37.1768 110.488 37.1136 110.741 37.1136C110.931 37.0503 111.121 37.0503 111.31 37.0503C111.627 37.0503 111.943 37.1136 112.133 37.1768C112.323 37.3034 112.449 37.43 112.576 37.5565C112.639 37.6831 112.703 37.8729 112.703 37.9995C112.703 38.3792 112.639 38.6956 112.513 38.8855C112.386 39.0753 112.196 39.2651 111.943 39.3284C111.69 39.455 111.374 39.455 111.057 39.5183C110.678 39.5183 110.298 39.5816 109.855 39.6448C109.475 39.7081 109.032 39.7714 108.589 39.8347C108.146 39.898 107.64 40.0245 107.197 40.1511C106.754 40.2777 106.311 40.5308 105.868 40.7839C105.488 41.037 105.172 41.4167 104.919 41.8597C104.666 42.3027 104.539 42.8089 104.539 43.4418C104.539 44.0113 104.666 44.5176 104.919 44.834C105.172 45.2137 105.425 45.4668 105.805 45.6566C106.185 45.8465 106.501 45.973 106.881 45.973C107.26 46.0363 107.577 46.0363 107.893 46.0363C108.146 46.0363 108.463 46.0363 108.842 45.973C109.222 45.9098 109.665 45.7832 110.108 45.5934C110.551 45.4035 111.057 45.0871 111.5 44.6441H111.564L111.627 45.6566H114.981V45.4035C114.917 45.4035 114.791 45.3402 114.728 45.2769C114.664 45.2137 114.601 45.0238 114.601 44.7074C114.601 44.5808 114.601 44.4543 114.601 44.3277C114.601 44.2012 114.664 44.0113 114.664 43.8847C114.664 43.7582 114.728 43.6316 114.728 43.505L115.803 38.7589C115.867 38.569 115.867 38.3792 115.93 38.1894C115.93 37.9995 115.993 37.8097 115.993 37.6198C115.993 37.3034 115.93 36.987 115.803 36.6706C115.55 36.3542 115.297 36.101 114.981 35.7846ZM111.88 41.4167C111.88 41.48 111.817 41.6066 111.753 41.7964C111.69 41.9863 111.627 42.2394 111.5 42.4925C111.374 42.7457 111.184 42.9988 110.994 43.1886C110.741 43.4418 110.488 43.6316 110.171 43.7582C109.855 43.8847 109.475 44.0113 109.032 44.0113C108.906 44.0113 108.779 44.0113 108.589 44.0113C108.399 44.0113 108.273 43.948 108.146 43.8847C108.02 43.8215 107.893 43.7582 107.767 43.6316C107.64 43.5051 107.64 43.3785 107.577 43.1886C107.577 42.8722 107.64 42.6191 107.83 42.366C107.956 42.1761 108.146 41.9863 108.399 41.8597C108.653 41.7331 108.906 41.6066 109.159 41.5433C109.412 41.48 109.665 41.4167 109.855 41.4167C110.424 41.2902 110.867 41.2269 111.121 41.1636C111.437 41.1003 111.627 41.037 111.753 40.9738C111.88 40.9105 112.007 40.9105 112.07 40.8472L111.88 41.4167ZM123.84 35.2784L120.296 42.3027L119.664 35.2784H116.246L118.018 45.7199H121.119L127.131 35.2784H123.84ZM127.068 44.5808C127.004 44.5176 127.004 44.4543 126.941 44.4543C126.941 44.4543 126.878 44.391 126.815 44.391C126.941 44.391 127.068 44.3277 127.131 44.2644C127.194 44.2012 127.257 44.0746 127.257 43.948C127.257 43.8847 127.257 43.7582 127.194 43.6949C127.131 43.6316 127.131 43.5683 127.068 43.5683C127.004 43.505 126.941 43.505 126.815 43.505C126.751 43.505 126.625 43.505 126.308 43.505H125.992V45.0871H126.308V44.391H126.372C126.435 44.391 126.561 44.391 126.625 44.4543C126.688 44.5176 126.751 44.5808 126.878 44.7707L127.004 45.0238H127.384L127.194 44.7074C127.131 44.6441 127.068 44.5808 127.068 44.5808ZM126.751 44.1379C126.688 44.1379 126.561 44.1379 126.372 44.1379H126.308V43.6949H126.435C126.625 43.6949 126.751 43.6949 126.815 43.6949C126.878 43.6949 126.878 43.7582 126.941 43.7582C126.941 43.8215 127.004 43.8215 127.004 43.8847C127.004 43.948 127.004 43.948 126.941 44.0113C126.878 44.1379 126.815 44.1379 126.751 44.1379ZM127.384 42.9988C127.131 42.8722 126.878 42.8089 126.625 42.8089C126.372 42.8089 126.118 42.8722 125.865 42.9988C125.612 43.1254 125.422 43.3152 125.296 43.5683C125.169 43.8215 125.106 44.0746 125.106 44.3277C125.106 44.5808 125.169 44.834 125.296 45.0871C125.422 45.3402 125.612 45.5301 125.865 45.6566C126.118 45.7832 126.372 45.8465 126.625 45.8465C126.878 45.8465 127.131 45.7832 127.384 45.6566C127.637 45.5301 127.827 45.3402 127.954 45.0871C128.08 44.834 128.143 44.5808 128.143 44.3277C128.143 44.0746 128.08 43.8215 127.954 43.5683C127.827 43.3152 127.637 43.1254 127.384 42.9988ZM127.7 44.8973C127.574 45.0871 127.447 45.2137 127.257 45.3402C127.068 45.4668 126.878 45.5301 126.625 45.5301C126.435 45.5301 126.182 45.4668 125.992 45.3402C125.802 45.2137 125.675 45.0871 125.549 44.8973C125.422 44.7074 125.359 44.5176 125.359 44.2644C125.359 44.0746 125.422 43.8215 125.549 43.6316C125.675 43.4418 125.802 43.3152 125.992 43.1886C126.182 43.0621 126.372 43.0621 126.561 43.0621C126.751 43.0621 126.941 43.1254 127.131 43.1886C127.321 43.3152 127.447 43.4418 127.574 43.6316C127.7 43.8215 127.764 44.0113 127.764 44.2644C127.89 44.5176 127.827 44.7074 127.7 44.8973Z" fill="white"/>
<path fill-rule="evenodd" clip-rule="evenodd" d="M145.572 32.1369C146.032 32.8934 146.204 33.7663 146.204 34.6392C146.262 35.9194 145.802 37.1414 145.055 37.9561C144.02 38.9453 142.698 39.5272 141.262 39.6436C141.721 40.1091 142.124 40.5747 142.469 41.1566C143.388 42.9023 144.25 44.7063 144.94 46.5684H141.319C141.032 45.6373 140.457 44.1825 139.595 42.2622C139.25 41.4475 138.79 40.7493 138.101 40.1673C137.583 39.8764 137.009 39.76 136.434 39.8182H135.055L133.675 46.5684H130.342L133.733 30.333H140.974C142.009 30.333 142.986 30.4494 143.905 30.7403C144.595 30.9731 145.17 31.4968 145.572 32.1369ZM140.974 37.1414C141.492 36.9668 142.009 36.6177 142.354 36.1521C142.641 35.6866 142.813 35.2211 142.871 34.6974C142.871 34.1736 142.584 33.6499 142.124 33.359C141.549 33.1262 140.859 33.0098 140.227 33.068H136.549L135.629 37.4323H137.411C138.618 37.5487 139.825 37.4323 140.974 37.1414Z" fill="white"/>
<path fill-rule="evenodd" clip-rule="evenodd" d="M152.469 34.581C153.676 34.5228 154.883 34.8138 155.86 35.5121C156.549 36.0358 156.952 36.8505 157.067 37.7234C157.067 38.0725 157.009 38.4798 156.952 38.829C156.903 39.0031 156.843 39.2941 156.759 39.702C156.647 40.2485 156.492 41.005 156.262 41.9713C156.032 42.9606 155.86 43.9498 155.802 44.9391C155.86 45.521 155.917 46.1029 156.09 46.6266H152.986C152.975 46.5796 152.963 46.5333 152.951 46.4873C152.849 46.0783 152.756 45.7068 152.756 45.2882C152.296 45.812 151.779 46.2193 151.147 46.5102C150.572 46.743 149.94 46.9176 149.308 46.9176C148.388 46.9176 147.526 46.5684 146.894 45.9283C146.204 45.2882 145.859 44.4154 145.917 43.4843C145.859 42.495 146.262 41.5058 146.951 40.8075C147.641 40.1092 148.906 39.7019 150.687 39.5855C151.722 39.5273 152.756 39.3527 153.733 39.12C153.848 38.7708 153.906 38.4217 153.906 38.0725C153.906 37.7234 153.791 37.3742 153.503 37.1996C153.159 36.9669 152.756 36.7923 152.296 36.8505C151.779 36.8505 151.319 36.9669 150.917 37.1996C150.572 37.4324 150.342 37.7816 150.227 38.1889L147.124 37.8979C147.411 36.9087 148.101 36.0358 148.963 35.4539C149.998 34.8138 151.262 34.5228 152.469 34.581ZM152.584 43.2515C152.871 42.7278 153.044 42.1459 153.159 41.564L153.216 41.0985C153.101 41.1276 152.972 41.1421 152.842 41.1566C152.713 41.1712 152.584 41.1857 152.469 41.2148C151.377 41.2148 150.285 41.5058 149.308 42.0295C148.963 42.3205 148.791 42.7278 148.791 43.1352C148.791 43.4843 148.906 43.8334 149.193 44.0662C149.48 44.3572 149.825 44.4736 150.227 44.4736C150.745 44.4736 151.204 44.3572 151.607 44.1244C152.009 43.9498 152.354 43.6589 152.584 43.2515Z" fill="white"/>
<path fill-rule="evenodd" clip-rule="evenodd" d="M168.561 30.3913L167.297 36.5013C166.55 35.2793 165.17 34.5228 163.734 34.6392C162.009 34.581 160.4 35.4539 159.481 36.9087C158.446 38.4217 157.871 40.1674 157.871 42.0295C157.756 43.3679 158.159 44.7063 159.021 45.6956C159.768 46.5102 160.86 46.9758 162.009 46.9758C162.642 46.9758 163.331 46.8594 163.906 46.6266C164.538 46.3357 165.113 45.9283 165.63 45.4628L165.343 46.743H168.389L171.78 30.5076H168.561V30.3913ZM166.032 42.0877C165.803 42.786 165.4 43.4261 164.826 43.8916C164.366 44.299 163.791 44.4736 163.216 44.4736C162.642 44.4736 162.067 44.2408 161.665 43.7753C161.205 43.2515 160.975 42.495 161.032 41.7968C161.032 40.6329 161.32 39.4691 161.952 38.4217C162.354 37.4906 163.274 36.9087 164.251 36.8505C164.883 36.8505 165.458 37.1414 165.86 37.6652C166.32 38.2471 166.607 39.0036 166.55 39.7019C166.435 40.5747 166.32 41.3894 166.032 42.0877Z" fill="white"/>
<path fill-rule="evenodd" clip-rule="evenodd" d="M176.837 34.581C178.044 34.5228 179.251 34.8138 180.228 35.5121C180.918 36.0358 181.32 36.8505 181.378 37.7234C181.378 38.0725 181.32 38.4798 181.263 38.829C181.205 39.2363 181.033 40.2838 180.631 41.9713C180.401 42.9606 180.228 43.9498 180.171 44.9391C180.228 45.521 180.286 46.1029 180.458 46.6266H177.355C177.343 46.5796 177.331 46.5332 177.32 46.4873C177.218 46.0782 177.125 45.7068 177.125 45.2882C176.665 45.812 176.148 46.2193 175.516 46.5102C174.941 46.743 174.309 46.9176 173.676 46.9176C172.757 46.9176 171.895 46.5684 171.263 45.9283C170.573 45.2882 170.228 44.4154 170.285 43.4843C170.228 42.495 170.63 41.5058 171.32 40.8075C172.01 40.1092 173.274 39.7019 175.056 39.5855C176.09 39.5273 177.125 39.3527 178.102 39.12C178.217 38.7708 178.274 38.4217 178.274 38.0725C178.274 37.7234 178.159 37.3742 177.872 37.1996C177.527 36.9669 177.125 36.7923 176.665 36.8505C176.148 36.8505 175.688 36.9669 175.286 37.1996C174.941 37.4324 174.711 37.7816 174.596 38.1889L171.492 37.8979C171.78 36.9087 172.469 36.0358 173.332 35.4539C174.366 34.8138 175.63 34.5228 176.837 34.581ZM177.01 43.2515C177.297 42.7278 177.47 42.1459 177.585 41.564L177.642 41.0985C177.52 41.1294 177.398 41.1439 177.267 41.1594C177.152 41.1731 177.03 41.1876 176.895 41.2148C175.803 41.2148 174.711 41.5058 173.734 42.0295C173.389 42.3205 173.217 42.7278 173.217 43.1352C173.217 43.4843 173.332 43.8334 173.619 44.0662C173.906 44.3572 174.251 44.4736 174.653 44.4736C175.171 44.4736 175.63 44.3572 176.033 44.1244C176.435 43.9498 176.78 43.6589 177.01 43.2515Z" fill="white"/>
<path d="M183.562 34.872H186.55L186.091 37.1414C187.183 35.4539 188.389 34.581 189.711 34.581C190.229 34.581 190.746 34.6974 191.206 34.9301L189.999 37.5488C189.711 37.4324 189.366 37.3742 189.079 37.3742C188.447 37.3742 187.872 37.6069 187.412 38.0143C186.838 38.4216 186.378 39.0035 186.091 39.7018C185.688 40.7493 185.343 41.8549 185.171 42.9605L184.366 46.6266H181.205L183.562 34.872Z" fill="white"/>
<path fill-rule="evenodd" clip-rule="evenodd" d="M203.677 36.6759C203.045 37.4324 202.24 37.9561 201.321 38.1889C202.125 38.3635 202.815 38.7708 203.39 39.4109C203.85 39.9346 204.08 40.6329 204.08 41.3894C204.022 42.3787 203.735 43.3679 203.217 44.1826C202.7 44.9973 201.896 45.6956 200.919 46.0447C199.597 46.5102 198.275 46.6848 196.895 46.6266H189.194L192.585 30.3913H198.16C199.022 30.3913 199.827 30.3913 200.689 30.5076C201.378 30.5658 202.068 30.7986 202.7 31.1477C203.217 31.4969 203.677 31.9042 203.965 32.4861C204.309 33.0681 204.424 33.7082 204.424 34.3483C204.424 35.1629 204.194 35.9776 203.677 36.6759ZM199.079 43.7753C199.482 43.6007 199.884 43.3097 200.171 42.9024C200.401 42.495 200.574 42.0877 200.631 41.6222C200.689 41.0985 200.459 40.6329 200.056 40.2838C199.482 39.8764 198.735 39.7019 198.045 39.7601H194.022L193.102 44.008H196.378C197.24 44.0662 198.16 44.008 199.079 43.7753ZM199.597 36.7341C200.056 36.5595 200.459 36.3268 200.746 35.9194C200.976 35.5703 201.091 35.1048 201.091 34.7556C201.091 34.3483 200.976 33.9991 200.746 33.7082C200.459 33.4172 200.114 33.2426 199.712 33.1844C199.137 33.1262 198.505 33.1262 197.93 33.1262H195.344L194.539 36.9669H197.125C197.93 37.0251 198.792 36.9087 199.597 36.7341Z" fill="white"/>
<path fill-rule="evenodd" clip-rule="evenodd" d="M215.862 36.0358C214.77 35.0465 213.275 34.5228 211.781 34.581C209.942 34.5228 208.218 35.2211 206.896 36.5013C205.631 37.8979 204.942 39.8182 205.057 41.7385C205.057 42.6696 205.286 43.5424 205.689 44.3571C206.091 45.1718 206.781 45.8119 207.585 46.2192C208.505 46.6848 209.539 46.9175 210.574 46.8593C212.413 46.9175 214.252 46.161 215.459 44.7645C216.666 43.4261 217.298 41.6221 217.298 39.8182C217.356 38.4216 216.839 37.025 215.862 36.0358ZM214.137 39.469C214.195 40.8656 213.735 42.204 212.873 43.3097C212.356 44.008 211.551 44.4153 210.689 44.4153C210.057 44.4153 209.425 44.1825 208.965 43.6588C208.505 43.1351 208.218 42.3786 208.275 41.6803C208.275 40.9238 208.448 40.1673 208.735 39.469C208.965 38.7707 209.425 38.1306 209.999 37.6069C210.517 37.1996 211.149 36.9668 211.838 36.9668C212.471 36.9668 213.103 37.1996 213.563 37.6651C213.907 38.1306 214.195 38.7707 214.137 39.469Z" fill="white"/>
<path d="M219.482 46.6266L222.413 43.3097L224.08 46.6266H227.471L224.54 40.982L230 34.872H226.092L223.103 38.1889L221.379 34.872H217.988L221.034 40.5747L215.574 46.6266H219.482Z" fill="white"/>
<defs>
<linearGradient id="paint0_linear_1625_236417" x1="39.9964" y1="29.2051" x2="48.9568" y2="34.5891" gradientUnits="userSpaceOnUse">
<stop stop-color="white" stop-opacity="0"/>
<stop offset="0.2923" stop-color="white" stop-opacity="0.767"/>
<stop offset="0.342" stop-color="white" stop-opacity="0.8974"/>
<stop offset="0.435" stop-color="white" stop-opacity="0.9119"/>
<stop offset="1" stop-color="white"/>
</linearGradient>
</defs>
</svg>
