<svg xmlns="http://www.w3.org/2000/svg" viewBox="0 0 48 48"><linearGradient id="a" x1="69.1" x2="458.1" y1="525.8" y2="136.8" gradientTransform="translate(1.4 1) scale(.0859)" gradientUnits="userSpaceOnUse"><stop offset="0" stop-color="#24326a"/><stop offset=".1" stop-color="#283369"/><stop offset=".1" stop-color="#333567"/><stop offset=".2" stop-color="#453864"/><stop offset=".2" stop-color="#5b3d5f"/><stop offset=".3" stop-color="#764459"/><stop offset=".4" stop-color="#964e4e"/><stop offset=".4" stop-color="#bf5b3c"/><stop offset=".5" stop-color="#ed6b23"/><stop offset="1" stop-color="#9c9c9c"/></linearGradient><path fill="url(#a)" d="M35.7 20.4V7.8L24 1 12.3 7.8v12.6l-11 6.3v13.5L13.2 47 24 40.7 35 47l11.6-6.8V26.7ZM24 26.2l-9.3-5.4 9.3-5.3 9.3 5.3zm-10.1-4 9.3 5.4v10.8L13.9 33zm10.9 5.4 9.3-5.4V33l-9.3 5.4zm-11-19L24 2.9l10.1 5.9v10.8l-10.1-6-10.1 5.9ZM3 39.4V27.6l9.3-5.4V34l10.1 5.9-9.3 5.4zm42 0-10 5.9-9.4-5.4L35.7 34V22.2l9.3 5.4z"/></svg>
