<svg xmlns="http://www.w3.org/2000/svg" xml:space="preserve" viewBox="0 0 32 32"><path fill="#68b044" d="m17.51 2.4-.84 3.37c1.2-2.4 3.13-4.19 5.34-5.77-1.61 1.86-3.09 3.73-3.97 5.63 1.51-2.15 3.55-3.3 5.84-4.12a39.6 39.6 0 0 0-7.32 8.58l-1.47-.63a18.62 18.62 0 0 1 2.42-7.07z"/><path fill="#f5f8de" d="m13.61 8.83 2.78 1.16c0 .7-.07 2.88.39 3.51 4.64 5.98 3.86 18-.95 18.29-7.32 0-10.13-4.96-10.13-9.53 0-4.19 5-6.93 7.98-9.39.8-.67.67-2.14-.07-4.04z"/><path fill="#7e4798" d="m16.39 9.95 1.02.53c-.1.67.03 2.14.7 2.5 2.96 1.82 5.7 3.8 6.79 5.8 3.87 7-2.7 13.5-8.44 12.87 3.1-2.29 4-7 2.85-12.17-.46-2-1.2-3.83-2.5-5.9-.56-.96-.35-2.22-.42-3.63z"/><g fill="#010101"><path d="M15.26 13.3c-.2 1.08-.45 3.05-1.4 3.79-.39.28-.81.56-1.23.84-1.73 1.16-3.42 2.25-4.19 5.03a3.6 3.6 0 0 0 .1 1.83 12.34 12.34 0 0 0 2.57 4.64c0 .04.18.18.18.21.77.92 1.02 1.2 3.97 1.87l-.07.31c-1.8-.45-3.23-.91-4.18-1.96a12.48 12.48 0 0 1-2.81-5 3.49 3.49 0 0 1-.11-2c.8-2.89 2.57-4.05 4.32-5.24.4-.25.88-.5 1.27-.81.8-.53 1.2-2.18 1.58-3.52z"/><path d="M16.04 17.86c.03 1.23-.1 1.87.2 2.75.18.52.85 1.23 1.03 1.93.24.92.52 1.93.52 2.57 0 .7-.03 2.04-.35 3.44a4.1 4.1 0 0 1-1.68 2.75 5.9 5.9 0 0 1-2.68-1.1 7.45 7.45 0 0 1-2.5-4.5c-.1-1.3 1.1-3.23 2.78-4.18 1.41-.84 1.76-1.76 2.08-3.3-.42 1.33-.85 2.42-2.22 3.16-2 1.06-3.02 2.78-2.92 4.47a5.74 5.74 0 0 0 2.68 4.74 8.4 8.4 0 0 0 2.88 1.16v-.1c.63-.1 1.44-1.16 1.86-2.53.36-1.27.5-2.85.46-3.87a10.5 10.5 0 0 0-.77-3.03c-.25-.63-.67-1.26-.92-1.72-.31-.53-.31-1.51-.45-2.64z"/><path d="M15.83 22.68c.03.85.35 1.9.49 2.99.1.8.07 1.62.03 2.32a9.05 9.05 0 0 1-.66 3.03c-.36-.18-.5-.36-.74-.64-.28-.38-.5-.8-.67-1.26-.14-.36-.32-.78-.39-1.23a4 4 0 0 1 .74-2.96c.63-.91.77-.98.98-2-.28.91-.49 1.02-1.16 1.8-.73.83-.84 2.1-.84 3.12 0 .42.18.91.35 1.34.18.45.35.95.6 1.3.39.56.88.91 1.13.95v-.04a3.4 3.4 0 0 0 .84-1.54c.1-.64.14-1.24.21-1.97a7.4 7.4 0 0 0-.14-2.29c-.21-1.05-.6-2.14-.77-2.92z"/><path d="M15.97 12.3c.03 1.24.1 3.52.45 4.44.1.31.99 1.65 1.59 3.3.42 1.13.52 2.18.6 2.5.28 1.34-.08 3.62-.53 5.77-.25 1.16-1.06 2.6-1.97 3.16l-.18.32c.53-.04 1.8-1.27 2.25-2.85.78-2.64 1.06-3.87.7-6.82a8.38 8.38 0 0 0-.63-2.29c-.67-1.58-1.62-3.1-1.72-3.4-.25-.5-.53-2.68-.56-4.12z"/><path d="M16.39 10.06a11.6 11.6 0 0 0 .14 3.2c.25 1.02 1.58 2.5 2.14 4.18 1.06 3.24.78 7.46.04 10.73a5.7 5.7 0 0 1-2.99 3.37l.98.25c.53-.04 1.94-1.34 2.5-2.81.88-2.36 1.06-5.14.7-8.1a22.9 22.9 0 0 0-.94-3.86c-.64-1.58-1.66-2.7-2-3.7a7.44 7.44 0 0 1-.22-3.09z"/></g><path fill="#010101" d="M23.42 16.28a19.7 19.7 0 0 0-3.62-2.43c-.6-.31-2.43-1.75-1.8-3.8l-4.6-1.9-.32.25c1.55 2.78.74 4.26-.03 4.75-1.55 1.06-3.8 2.4-4.89 3.55a8.31 8.31 0 0 0-2.57 7.07c.21 3.55 2.78 6.5 6.26 7.67 1.51.49 2.92.56 4.47.56 2.5 0 5.1-.67 6.96-2.22a8.75 8.75 0 0 0 3.17-6.71 9.17 9.17 0 0 0-3.03-6.79zm-.67 12.98c-1.72 1.4-4.81 2.39-6.47 2.32-1.83-.1-3.62-.39-5.2-1.16-2.78-1.34-4.6-4.26-4.75-6.61-.24-4.82 2.08-6.2 4.22-7.95 1.2-.99 2.88-1.48 3.83-3.24.18-.38.29-1.23.07-2.1a9.89 9.89 0 0 0-.7-1.62l3.45 1.5c-.42 1.6.88 3.24 1.93 3.84 1.06.6 2.7 1.72 3.73 2.64a8.15 8.15 0 0 1 2.7 6.19c0 2.35-.98 4.68-2.8 6.19z"/></svg>
